<?xml version="1.0" standalone="no"?>
<!DOCTYPE svg PUBLIC "-//W3C//DTD SVG 20010904//EN"
 "http://www.w3.org/TR/2001/REC-SVG-20010904/DTD/svg10.dtd">
<svg version="1.0" xmlns="http://www.w3.org/2000/svg"
 width="290.000000pt" height="174.000000pt" viewBox="0 0 290.000000 174.000000"
 preserveAspectRatio="xMidYMid meet">
<metadata>
Created by potrace 1.16, written by Peter Selinger 2001-2019
</metadata>
<g transform="translate(0.000000,174.000000) scale(0.100000,-0.100000)"
fill="#000000" stroke="none">
<path d="M1977 1570 c-7 -35 -31 -40 -49 -10 -19 30 -38 25 -38 -10 0 -33 -24
-50 -43 -31 -15 15 -47 14 -47 -2 0 -7 5 -18 11 -24 7 -7 9 -19 5 -28 -5 -14
-14 -16 -41 -11 -39 8 -46 -5 -19 -35 22 -24 11 -49 -21 -49 -33 0 -33 -27 0
-42 14 -6 25 -17 25 -25 0 -7 -11 -19 -25 -25 -33 -15 -32 -36 2 -40 32 -3 44
-36 19 -50 -9 -5 -16 -16 -16 -25 0 -12 7 -14 36 -10 40 7 52 -8 34 -43 -17
-32 1 -46 33 -25 34 22 48 12 45 -30 l-2 -34 -88 2 c-88 2 -104 -3 -70 -22 9
-6 11 -11 5 -11 -18 0 -16 -25 3 -44 13 -14 58 -16 336 -16 l320 0 58 -31 c32
-17 67 -39 78 -49 11 -10 21 -17 23 -15 2 1 81 -48 174 -110 l170 -113 3 34
c2 19 -3 40 -10 47 -7 7 -84 60 -170 117 -87 58 -158 108 -158 113 0 4 77 7
170 7 140 0 170 3 170 14 0 8 -6 17 -12 19 -10 4 -10 6 1 6 8 1 5 9 -10 22
l-24 20 23 -6 c13 -4 22 -2 22 4 0 6 -16 11 -37 11 l-36 0 24 -21 c19 -17 21
-22 9 -29 -21 -13 -37 -12 -43 3 -4 10 -6 9 -6 0 -1 -7 -6 -13 -12 -13 -5 0
-7 4 -4 10 3 6 -1 10 -9 10 -9 0 -16 -4 -16 -10 0 -6 -111 -9 -317 -8 l-318 2
285 7 c157 3 290 7 295 8 6 1 1 6 -10 11 -16 7 -17 9 -3 9 9 1 21 -7 27 -16 8
-16 11 -15 29 7 l20 25 -64 3 c-48 2 -64 7 -64 17 0 17 -77 292 -85 306 -9 14
-32 11 -49 -7 -9 -8 -20 -13 -24 -10 -5 3 -10 0 -11 -7 -2 -10 -10 -230 -11
-284 0 -10 -43 -13 -180 -13 l-180 0 0 34 c0 42 15 54 40 31 11 -10 26 -15 34
-12 12 5 13 11 3 36 -15 40 -1 56 36 42 33 -13 44 10 16 35 -22 19 -25 43 -6
45 6 1 17 2 22 4 6 1 16 3 23 3 21 3 13 28 -13 40 -32 15 -32 36 1 51 31 14
27 35 -7 39 -33 5 -45 18 -31 35 9 10 34 13 99 10 64 -2 82 0 66 7 -13 5 -23
14 -23 19 0 6 -23 7 -55 4 -43 -5 -56 -3 -60 10 -5 12 -12 13 -35 4 -37 -14
-47 -4 -33 34 10 25 9 31 -3 36 -9 3 -20 1 -27 -6 -6 -6 -19 -11 -29 -11 -14
0 -18 8 -18 35 0 40 -22 48 -42 15 -18 -29 -37 -25 -49 10 -6 17 -17 30 -24
30 -7 0 -15 -13 -18 -30z m130 -103 c40 -27 83 -91 83 -121 0 -12 -10 -16 -45
-16 -37 0 -49 5 -71 30 -15 16 -42 32 -60 36 -18 3 -39 13 -48 23 -20 22 -36
67 -28 76 4 4 35 5 68 3 47 -3 71 -10 101 -31z m-203 -56 c16 -28 17 -38 7
-71 -8 -26 -8 -46 -1 -65 14 -38 13 -56 -11 -94 l-20 -33 -26 23 c-69 64 -71
187 -5 262 20 23 32 18 56 -22z m286 -152 c0 -25 -44 -91 -76 -116 -29 -21
-50 -28 -101 -31 -36 -3 -69 0 -73 4 -5 5 0 26 13 49 17 30 30 41 57 46 19 4
44 19 56 33 28 32 124 43 124 15z"/>
<path d="M1533 1489 c-7 -37 -40 -54 -65 -32 -18 16 -49 14 -55 -4 -2 -6 5
-21 16 -32 17 -17 19 -26 11 -46 -6 -15 -17 -25 -29 -25 -11 0 -22 -4 -25 -9
-3 -5 -21 -5 -41 -1 -23 5 -35 4 -35 -3 0 -6 -3 -8 -6 -4 -3 3 3 19 15 35 24
35 19 43 -21 35 -29 -6 -30 -5 -23 26 8 38 -8 41 -43 9 -13 -13 -23 -18 -22
-13 1 6 2 22 1 38 -1 32 -26 37 -36 7 -3 -11 -12 -20 -20 -20 -7 0 -15 9 -18
20 -7 28 -26 25 -38 -6 -9 -25 -11 -26 -28 -10 -27 24 -44 21 -37 -8 7 -30 -7
-41 -33 -26 -23 12 -39 -3 -23 -23 24 -32 20 -43 -14 -39 -36 4 -44 -7 -19
-28 22 -18 18 -38 -7 -42 -31 -4 -33 -25 -3 -32 31 -8 32 -20 4 -40 -28 -19
-16 -36 22 -31 30 4 30 3 15 -20 -25 -37 -20 -48 15 -41 30 6 31 5 26 -23 -8
-37 0 -44 27 -25 25 16 36 10 36 -18 0 -22 28 -24 36 -3 9 22 32 18 39 -6 8
-25 29 -20 33 9 3 23 26 30 37 12 3 -5 13 -10 21 -10 11 0 13 6 8 23 -4 12
-12 26 -18 30 -6 5 -3 6 9 3 77 -20 79 -20 71 0 -16 39 -12 49 17 46 19 -2 27
2 27 13 0 9 -7 18 -15 21 -23 9 -18 31 10 38 32 8 32 20 -2 35 l-26 12 21 21
c19 20 21 20 38 4 9 -10 25 -15 35 -13 25 7 57 -29 41 -45 -14 -14 -16 -52 -3
-43 5 3 11 -3 13 -12 3 -16 7 -14 29 10 32 33 61 35 74 5 6 -13 19 -23 30 -23
15 0 20 7 21 30 1 46 17 69 44 62 12 -3 28 -3 36 0 23 9 16 43 -10 53 -36 13
-44 49 -16 70 30 22 23 56 -10 52 -13 -1 -27 -7 -31 -13 -9 -15 -49 11 -49 33
0 54 -46 69 -57 17z"/>
<path d="M1067 1013 c-3 -10 -8 -28 -12 -40 -4 -16 3 -32 31 -62 32 -36 35
-44 27 -69 -6 -15 -11 -92 -12 -172 -1 -80 -4 -161 -7 -181 -3 -23 -1 -40 6
-44 15 -9 32 15 25 34 -9 24 31 231 45 231 17 0 41 -86 47 -171 5 -73 10 -92
24 -100 14 -7 17 -6 14 3 -3 7 -7 74 -9 148 -3 74 -8 149 -13 165 -8 27 -14
30 -55 33 l-46 3 0 47 c0 26 5 54 12 62 17 20 27 60 14 60 -5 0 -6 10 -3 21 5
15 4 19 -4 15 -6 -4 -11 -20 -11 -37 0 -21 -5 -29 -18 -29 -23 0 -40 29 -35
62 4 30 -13 48 -20 21z"/>
<path d="M756 945 c-8 -30 -31 -33 -48 -5 -20 32 -38 24 -38 -16 0 -39 4 -38
-64 -17 -16 5 -18 3 -12 -18 15 -50 13 -54 -26 -51 -29 2 -38 -1 -38 -13 0 -9
7 -18 15 -21 26 -10 18 -42 -12 -46 -36 -4 -40 -25 -9 -39 33 -15 33 -37 1
-49 -14 -5 -25 -16 -25 -25 0 -17 -16 -20 -25 -4 -4 6 1 17 11 24 18 13 18 14
2 15 -20 0 -24 15 -6 26 7 5 4 10 -11 16 -19 7 -21 11 -11 23 10 13 9 15 -9
15 -19 0 -21 4 -15 22 6 21 5 21 -10 9 -15 -13 -18 -12 -23 8 -4 17 -8 19 -19
10 -11 -9 -16 -6 -23 12 -5 13 -10 18 -10 12 -1 -20 -31 -15 -31 5 -1 16 -2
15 -15 -2 -11 -15 -17 -16 -28 -7 -12 9 -16 7 -21 -11 -5 -14 -9 -18 -13 -10
-7 17 -23 15 -23 -4 0 -12 -6 -15 -20 -11 -17 4 -20 2 -15 -14 5 -15 1 -19
-16 -19 -18 0 -20 -3 -11 -12 18 -18 15 -28 -10 -28 -21 0 -21 -1 -3 -14 18
-13 18 -13 -1 -24 -16 -10 -17 -13 -5 -21 12 -8 12 -12 2 -25 -11 -13 -11 -16
3 -16 19 0 22 -26 4 -33 -7 -3 -3 -6 10 -6 19 -1 22 -5 17 -22 -5 -16 -3 -20
12 -17 13 2 17 -2 15 -15 -3 -15 1 -17 17 -12 17 5 21 2 21 -17 1 -21 2 -21
11 -5 11 19 29 14 29 -7 0 -16 -37 -28 -46 -15 -3 5 -18 9 -34 9 -18 0 -45 14
-76 40 -27 22 -54 40 -60 40 -23 0 -25 -64 -4 -123 11 -31 20 -67 20 -81 0
-13 7 -29 15 -36 8 -7 15 -28 15 -49 -1 -31 -7 -41 -46 -70 -36 -27 -44 -39
-42 -60 2 -20 9 -27 31 -29 15 -2 27 1 27 7 0 6 -4 11 -10 11 -25 0 -5 28 40
57 42 28 49 37 52 70 3 29 6 34 12 21 5 -12 -1 -40 -18 -83 -14 -36 -26 -67
-26 -70 0 -3 20 -5 45 -5 25 0 45 5 45 10 0 6 -6 10 -14 10 -26 0 -26 16 0 78
l26 60 -36 76 c-20 42 -36 79 -36 81 0 3 14 5 32 5 40 0 108 30 108 47 0 19
19 16 27 -4 5 -14 8 -13 15 7 7 18 11 20 23 10 12 -10 15 -9 15 5 0 12 6 16
20 12 15 -4 20 -1 18 11 -2 13 3 16 21 14 20 -2 22 0 11 13 -11 14 -10 17 9
22 17 4 19 8 10 19 -16 19 -10 23 44 30 41 6 47 4 47 -11 0 -10 -7 -26 -16
-36 -21 -24 -11 -37 24 -31 34 5 49 -12 32 -33 -7 -8 -9 -22 -6 -31 6 -15 8
-15 31 0 32 21 45 13 45 -25 0 -34 24 -40 40 -9 13 23 40 27 40 5 0 -19 19
-19 44 0 11 8 30 12 46 8 22 -4 31 0 40 17 7 13 17 19 26 16 25 -10 53 11 47
34 -4 16 0 20 23 21 16 1 32 1 37 0 12 -2 8 11 -9 30 -22 24 -11 49 21 49 33
0 33 27 0 42 -29 13 -28 29 3 43 30 13 23 39 -11 43 -30 4 -35 23 -12 42 27
22 18 42 -17 38 -32 -3 -33 -2 -31 35 2 26 -2 37 -12 37 -7 0 -17 -4 -20 -10
-3 -5 -15 -10 -26 -10 -15 0 -19 7 -19 35 0 39 -18 47 -38 15 -17 -27 -39 -25
-46 5 -4 14 -13 25 -20 25 -8 0 -17 -11 -20 -25z m97 -79 c51 -22 107 -93 107
-137 0 -5 -21 -9 -46 -9 -38 0 -49 5 -70 29 -16 19 -36 31 -57 33 -25 2 -36
11 -54 43 -12 21 -19 43 -17 47 8 13 102 9 137 -6z m-157 -78 c11 -21 12 -33
4 -47 -13 -25 -13 -67 0 -92 8 -14 6 -28 -10 -59 -11 -22 -24 -40 -29 -40 -18
0 -60 61 -67 96 -11 58 1 121 31 159 30 40 43 37 71 -17z m259 -128 c9 -15
-20 -72 -51 -102 -38 -35 -74 -48 -135 -48 -39 0 -49 3 -49 17 0 26 49 83 72
83 11 0 36 14 55 30 34 30 95 42 108 20z"/>
<path d="M1553 943 c-37 -4 -44 -8 -50 -31 -10 -34 -8 -264 2 -289 6 -16 8
-16 16 4 4 13 8 52 8 87 -1 43 6 78 19 107 l19 44 13 -30 c7 -16 16 -37 20
-46 4 -8 14 -50 20 -92 27 -166 41 -43 15 135 -13 97 -20 120 -33 116 -4 -1
-26 -3 -49 -5z"/>
<path d="M2590 650 c0 -23 -18 -27 -26 -5 -9 23 -26 18 -19 -5 5 -14 2 -20 -9
-20 -9 0 -16 5 -16 10 0 6 -6 10 -14 10 -9 0 -12 -7 -9 -20 5 -21 -11 -28 -22
-10 -12 20 -25 9 -19 -15 6 -25 -9 -35 -21 -15 -4 6 -11 8 -16 4 -6 -4 -6 -11
1 -19 16 -19 3 -40 -15 -25 -8 7 -15 7 -19 1 -4 -5 -2 -12 4 -16 5 -3 10 -13
10 -21 0 -11 -6 -13 -20 -9 -23 7 -27 -10 -4 -19 21 -8 8 -26 -19 -26 -20 -1
-21 -2 -4 -14 21 -16 22 -36 2 -36 -8 0 -15 -4 -15 -10 0 -5 7 -10 15 -10 8 0
15 -5 15 -10 0 -6 -7 -13 -15 -16 -22 -9 -18 -24 5 -24 23 0 27 -15 5 -24 -23
-8 -18 -28 5 -21 14 5 20 2 20 -9 0 -9 -4 -16 -10 -16 -5 0 -10 -5 -10 -11 0
-7 9 -9 21 -6 18 5 20 2 14 -20 -5 -21 -3 -24 10 -19 24 9 38 -3 24 -20 -15
-19 -4 -30 15 -15 17 14 29 0 20 -23 -7 -17 11 -22 21 -6 10 17 25 11 25 -10
0 -11 5 -20 10 -20 6 0 10 5 10 10 0 6 7 10 15 10 8 0 15 -9 15 -20 0 -11 5
-20 10 -20 6 0 10 9 10 21 0 12 5 19 13 16 6 -2 11 -12 11 -21 -1 -9 4 -16 12
-16 8 0 14 9 14 20 0 26 17 26 25 0 3 -11 11 -20 16 -20 6 0 7 9 4 20 -5 14
-2 20 9 20 9 0 16 -4 16 -10 0 -5 5 -10 10 -10 6 0 10 9 10 20 0 21 15 27 25
10 11 -18 27 -11 20 9 -6 21 10 38 20 21 12 -20 25 -10 19 15 -6 24 -5 26 22
19 24 -5 27 -4 17 7 -20 20 -16 38 7 32 11 -3 20 0 20 6 0 6 -4 11 -10 11 -5
0 -10 7 -10 16 0 11 6 15 20 11 22 -6 29 17 8 27 -10 5 -10 7 0 12 6 3 12 12
12 19 0 7 -6 16 -12 18 -10 4 -9 8 2 17 11 9 12 13 3 17 -15 6 -17 33 -3 33 6
0 10 5 10 10 0 6 -7 10 -15 10 -8 0 -15 7 -15 15 0 8 5 15 10 15 6 0 10 5 10
11 0 6 -7 9 -15 6 -19 -8 -30 10 -16 27 14 16 2 29 -15 15 -9 -7 -14 -6 -20 2
-4 7 -2 15 4 17 24 8 12 24 -13 18 -23 -6 -25 -4 -19 19 4 15 2 25 -5 25 -6 0
-11 -4 -11 -10 0 -5 -7 -10 -16 -10 -11 0 -14 6 -9 20 6 20 -9 28 -20 10 -10
-17 -25 -11 -25 10 0 11 -4 20 -10 20 -5 0 -10 -7 -10 -15 0 -8 -7 -15 -15
-15 -8 0 -15 9 -15 20 0 11 -4 20 -10 20 -5 0 -10 -7 -10 -15 0 -8 -7 -15 -15
-15 -8 0 -15 7 -15 15 0 8 -4 15 -10 15 -5 0 -10 -9 -10 -20z"/>
<path d="M2055 595 c-3 -8 -7 -22 -10 -30 -2 -8 -16 -15 -30 -15 -19 0 -31 -9
-43 -31 -9 -17 -31 -50 -48 -72 -27 -36 -32 -54 -39 -127 -4 -47 -8 -119 -9
-160 -1 -71 0 -75 22 -78 22 -3 30 12 12 23 -19 12 -1 147 31 228 16 38 32 34
73 -16 34 -41 36 -49 38 -125 l3 -80 33 -4 c41 -5 48 1 22 19 -16 11 -20 26
-20 66 0 29 -7 79 -15 110 -20 76 -19 107 1 107 12 0 15 6 11 21 -6 23 16 37
36 22 10 -8 94 -33 110 -33 3 0 3 9 0 20 -4 13 -14 20 -32 20 -34 1 -64 18
-91 53 -12 15 -28 27 -36 27 -8 0 -14 5 -14 11 0 6 6 9 13 7 19 -7 48 27 34
41 -16 16 -47 14 -52 -4z"/>
<path d="M1110 429 c-13 -9 -12 -10 3 -5 19 6 24 -10 5 -17 -8 -3 -3 -9 11
-14 20 -8 21 -11 8 -16 -10 -4 -17 -1 -17 6 0 9 -3 8 -9 -1 -7 -11 -9 -11 -14
2 -6 15 -17 16 -67 4 -11 -2 -14 4 -13 22 3 22 2 23 -6 5 -12 -28 -8 -175 4
-175 6 1 9 16 8 34 -2 29 1 33 17 29 22 -6 28 13 8 19 -8 3 -3 10 11 17 21 12
23 11 18 -3 -3 -8 -2 -18 3 -21 6 -4 10 1 10 9 0 22 30 20 31 -1 1 -12 4 -10
9 7 5 16 8 19 9 8 1 -11 8 -16 21 -13 11 2 23 -3 28 -10 6 -12 10 -11 19 4 9
15 8 22 -5 37 -18 20 -18 64 -1 64 6 0 8 4 5 8 -8 13 -79 13 -96 1z"/>
<path d="M651 352 c-8 -16 -4 -32 21 -81 l32 -62 -47 -47 c-26 -26 -47 -55
-47 -64 0 -20 48 -28 81 -14 l24 10 -27 4 c-16 2 -28 7 -28 11 0 3 12 14 28
23 15 9 37 27 50 41 21 22 22 29 14 61 -11 38 -6 44 20 24 24 -20 37 -72 28
-112 l-8 -36 54 0 c58 0 73 14 25 23 -27 6 -28 9 -35 74 -6 54 -12 74 -33 96
-15 15 -33 27 -42 27 -8 0 -22 6 -30 14 -9 8 -28 17 -43 21 -20 5 -29 2 -37
-13z"/>
</g>
</svg>
