<?xml version="1.0" standalone="no"?>
<!DOCTYPE svg PUBLIC "-//W3C//DTD SVG 20010904//EN"
 "http://www.w3.org/TR/2001/REC-SVG-20010904/DTD/svg10.dtd">
<svg version="1.0" xmlns="http://www.w3.org/2000/svg"
 width="1000.000000pt" height="563.000000pt" viewBox="0 0 1000.000000 563.000000"
 preserveAspectRatio="xMidYMid meet">
<metadata>
Created by potrace 1.16, written by Peter Selinger 2001-2019
</metadata>
<g transform="translate(0.000000,563.000000) scale(0.100000,-0.100000)"
fill="#000000" stroke="none">
<path d="M0 3899 l0 -1568 23 -27 c55 -63 67 -14 67 266 l0 187 35 47 c54 70
90 60 121 -34 l19 -55 5 44 c5 41 7 44 40 47 77 8 139 6 175 -6 48 -16 148 -8
196 15 52 25 71 65 75 153 2 46 -1 80 -7 89 -15 17 0 53 59 152 25 41 69 122
98 180 59 115 58 112 28 253 -16 78 -18 134 -4 143 5 3 10 19 10 34 0 33 8 41
81 80 l54 29 0 228 c0 185 -4 239 -17 281 -9 28 -15 60 -13 70 2 10 4 21 4 26
1 4 14 7 29 7 16 0 37 6 47 14 16 12 17 16 6 30 -7 9 -11 23 -7 31 7 20 62 20
70 0 3 -8 15 -15 26 -15 21 0 27 15 9 25 -6 4 -7 19 -4 36 6 25 3 31 -26 47
-18 9 -44 28 -57 42 -13 14 -55 58 -93 98 -38 40 -81 77 -94 82 -14 5 -25 16
-25 24 0 27 -84 102 -155 139 -45 24 -76 48 -87 67 -11 19 -25 30 -39 30 -21
0 -39 13 -139 98 -34 28 -60 42 -80 42 -55 0 -210 42 -246 66 -50 34 -113 61
-151 66 l-33 5 0 -1568z"/>
<path d="M9899 5371 c-77 -45 -178 -79 -269 -92 -36 -5 -111 -25 -167 -44 -61
-21 -120 -35 -150 -35 -27 0 -74 -4 -104 -9 -30 -5 -85 -15 -124 -21 -110 -18
-113 -19 -121 -43 -3 -12 -21 -40 -40 -63 l-33 -41 11 -66 c11 -65 10 -67 -17
-103 -25 -32 -31 -36 -62 -31 -19 3 -46 1 -61 -4 -14 -6 -89 -13 -166 -16 -98
-4 -155 -11 -190 -24 -28 -10 -43 -18 -33 -19 10 0 15 -5 11 -11 -3 -6 -16 -8
-28 -5 -12 3 -31 -1 -42 -8 -37 -26 -117 -44 -154 -33 -27 7 -42 5 -68 -9 -17
-9 -30 -19 -27 -22 3 -3 -4 -11 -15 -19 -15 -11 -25 -11 -40 -3 -17 9 -28 7
-52 -7 -17 -10 -33 -24 -36 -32 -4 -11 1 -10 19 2 38 27 57 21 29 -8 -13 -14
-31 -25 -41 -25 -29 0 -44 -27 -30 -56 10 -23 9 -26 -4 -21 -11 5 -15 -1 -15
-24 0 -24 -4 -30 -15 -25 -10 3 -15 -1 -15 -12 0 -9 -3 -27 -6 -40 -5 -16 -3
-22 7 -20 11 2 13 -8 11 -39 -2 -33 1 -43 13 -43 9 0 15 -9 15 -21 0 -34 -22
-16 -39 32 -9 24 -22 50 -29 57 -19 20 -36 57 -76 162 -72 186 -141 283 -252
355 l-51 33 -11 91 c-12 103 -51 190 -108 244 -18 17 -30 35 -27 40 3 6 1 7
-5 3 -10 -6 -59 18 -72 36 -11 14 -195 40 -253 35 -32 -3 -82 -16 -110 -30
-29 -13 -72 -34 -97 -45 -25 -12 -54 -34 -65 -49 -11 -15 -33 -41 -50 -58 -16
-17 -37 -44 -45 -60 -8 -15 -27 -41 -42 -57 -14 -15 -24 -28 -21 -28 3 0 1 -6
-5 -12 -15 -20 -25 -95 -13 -103 6 -3 11 -2 11 3 0 5 17 30 38 56 39 48 63 56
96 31 23 -18 40 -20 30 -4 -4 7 1 7 16 -1 20 -11 20 -12 4 -24 -16 -12 -16
-14 4 -34 12 -12 27 -22 32 -22 6 0 10 -9 10 -20 0 -11 5 -20 10 -20 6 0 10
-9 10 -20 0 -11 6 -23 14 -26 11 -4 12 -13 5 -36 -8 -30 6 -58 29 -58 5 0 15
-7 22 -15 11 -13 8 -15 -14 -15 -15 0 -56 -7 -92 -16 -53 -14 -67 -22 -75 -42
-9 -25 -6 -78 5 -90 13 -12 53 -7 52 7 -1 7 5 16 13 19 8 3 11 0 7 -7 -4 -6
-1 -11 6 -11 7 0 19 -9 26 -20 7 -12 17 -18 22 -15 6 4 23 9 38 11 15 3 40 12
56 20 37 18 72 18 79 0 8 -20 -14 -76 -30 -76 -23 0 -42 -64 -45 -153 -2 -50
-7 -87 -13 -87 -5 0 -9 16 -8 35 2 34 -9 46 -23 24 -3 -6 -17 -8 -31 -4 -16 4
-22 2 -18 -5 4 -6 -13 -10 -48 -10 -37 0 -59 -5 -68 -16 -10 -13 -10 -17 2
-25 8 -5 20 -9 28 -9 11 0 9 -4 -5 -15 -19 -14 -19 -14 2 -15 12 0 27 -7 34
-15 7 -8 25 -15 40 -15 38 0 45 -25 14 -49 -55 -43 8 -55 101 -19 l56 21 62
-61 c69 -69 62 -85 -8 -21 -25 23 -48 39 -51 36 -9 -9 7 -88 16 -82 5 3 11 -3
14 -12 15 -56 60 -226 90 -343 18 -74 47 -184 62 -245 l29 -110 6 110 c10 166
16 393 10 367 -3 -13 -10 -23 -16 -22 -10 0 -12 6 -14 47 -1 17 -6 22 -22 20
-12 -1 -24 5 -26 13 -3 11 -2 12 4 3 13 -18 53 12 53 38 0 16 5 19 20 14 14
-4 20 -2 20 9 0 18 30 36 58 36 23 0 114 78 106 91 -3 5 0 8 7 7 13 -3 117
142 173 245 l38 67 -28 0 c-15 0 -32 7 -39 16 -10 15 -14 15 -44 -1 -18 -9
-35 -14 -37 -12 -5 5 59 37 74 37 5 0 15 -7 22 -15 17 -21 21 -20 77 19 l49
34 46 -42 c24 -23 53 -56 62 -72 10 -16 31 -37 46 -46 23 -13 27 -21 23 -40
-6 -21 -5 -22 11 -9 30 25 27 4 -4 -28 -51 -51 -68 -56 -80 -26 -5 14 -12 25
-14 25 -3 0 -3 -6 0 -13 3 -9 -10 -18 -38 -26 -68 -21 -90 -33 -76 -43 23 -14
-30 -9 -67 6 -31 13 -37 13 -50 0 -8 -9 -15 -24 -15 -35 0 -12 -7 -19 -20 -19
-46 0 -63 -91 -20 -105 16 -5 17 -8 4 -34 -8 -16 -21 -34 -29 -41 -20 -16 -19
-69 0 -76 21 -8 19 -18 -10 -52 -26 -31 -32 -66 -16 -91 7 -11 15 -2 31 35 55
121 65 138 97 171 33 32 36 33 48 16 7 -10 17 -15 21 -10 4 4 18 0 31 -9 14
-8 34 -17 45 -19 30 -6 31 -10 20 -47 -6 -18 -16 -65 -23 -105 l-12 -72 -51
-6 c-28 -4 -64 -15 -79 -23 -31 -19 -32 -49 -2 -44 12 2 16 -1 10 -5 -15 -11
-17 -56 -3 -64 9 -6 9 -11 1 -21 -15 -18 7 -48 36 -48 11 0 20 3 19 8 -1 4 1
17 6 30 5 16 15 22 34 21 15 0 21 -3 14 -6 -6 -2 -10 -8 -7 -13 3 -4 -4 -6
-15 -3 -23 6 -28 -15 -5 -23 8 -4 12 -10 9 -15 -3 -5 -1 -9 5 -9 5 0 11 6 14
13 3 6 5 3 5 -8 0 -11 4 -44 10 -73 12 -70 6 -101 -19 -95 -13 4 -19 0 -19
-11 0 -10 -9 -16 -25 -16 -16 0 -25 -6 -25 -15 0 -9 -12 -20 -27 -26 -20 -7
-24 -12 -14 -18 28 -17 -38 -21 -79 -5 -40 16 -43 16 -60 -2 -17 -17 -17 -21
-4 -38 13 -18 14 -19 14 -2 0 14 5 17 23 12 12 -3 25 -6 30 -6 15 0 6 -20 -10
-20 -9 0 -14 -3 -10 -6 3 -3 -6 -17 -21 -30 -23 -20 -25 -25 -12 -34 8 -5 47
-10 87 -10 39 0 75 -4 78 -10 3 -5 -1 -10 -10 -10 -11 0 -15 -6 -10 -19 4 -12
0 -21 -12 -25 -10 -4 -34 -15 -53 -25 -19 -11 -38 -17 -41 -15 -4 2 -9 -5 -12
-16 -3 -11 -1 -20 5 -20 5 0 6 -6 1 -12 -20 -31 -30 -77 -20 -87 17 -17 31
-13 17 4 -10 13 -9 15 9 15 40 0 90 -77 61 -95 -5 -3 -10 -11 -10 -18 0 -6 7
-2 15 10 18 26 16 93 -2 86 -8 -3 -13 3 -13 16 0 14 6 21 20 21 11 0 20 -6 20
-14 0 -8 7 -17 15 -20 14 -5 14 -8 0 -30 -14 -22 -14 -25 1 -40 10 -10 24 -14
36 -10 13 4 27 -3 46 -22 l27 -27 -36 6 c-27 4 -40 1 -52 -13 -14 -17 -14 -20
8 -34 31 -20 59 -21 52 -2 -4 9 2 17 14 21 11 4 24 18 30 32 12 31 11 36 -1
28 -6 -4 -1 12 11 34 27 52 39 60 39 24 0 -30 30 -58 64 -58 10 0 20 -8 22
-17 4 -29 47 -107 55 -102 5 3 6 -1 3 -9 -3 -8 0 -18 6 -22 8 -5 6 -12 -5 -25
-10 -11 -14 -24 -9 -31 4 -7 3 -10 -3 -6 -5 4 -20 -5 -32 -19 -18 -20 -20 -28
-10 -40 23 -28 213 -9 263 28 32 23 46 14 46 -34 0 -20 6 -27 23 -30 22 -3 24
-6 26 -58 1 -23 5 -28 19 -24 11 4 8 -1 -8 -15 -14 -11 -19 -21 -12 -21 26 0
11 -50 -29 -97 -23 -26 -45 -49 -50 -51 -5 -2 -18 -19 -29 -38 -16 -24 -20
-42 -15 -63 6 -30 73 -99 116 -121 13 -6 -4 15 -38 47 -51 48 -63 65 -63 91 0
32 9 43 88 114 23 20 42 41 42 47 0 6 9 27 19 47 11 20 17 42 14 50 -2 7 -1
18 3 25 4 8 11 2 19 -17 l12 -29 8 25 c4 14 19 38 32 54 17 20 23 36 19 53 -3
12 -8 33 -11 46 -4 16 9 42 55 101 33 43 60 81 60 83 0 3 -15 31 -34 62 -44
75 -58 121 -18 61 16 -25 39 -53 50 -64 12 -10 19 -23 16 -28 -3 -4 0 -7 8 -6
7 2 12 -2 11 -9 -5 -24 29 -5 53 30 28 41 39 45 53 19 16 -30 79 -46 130 -32
51 14 59 9 41 -27 -11 -23 -14 -25 -17 -10 -3 9 -8 17 -13 17 -4 0 -3 -13 3
-29 9 -24 7 -36 -12 -72 -37 -71 -41 -86 -27 -99 14 -11 39 18 118 136 27 40
31 42 87 46 45 3 70 11 102 34 36 25 51 29 110 29 51 0 72 -4 88 -19 11 -10
18 -23 15 -27 -3 -5 1 -9 9 -9 22 0 87 -61 87 -82 0 -20 26 -25 33 -5 7 19 37
-3 78 -57 33 -43 54 -61 99 -82 8 -4 19 -13 23 -21 4 -7 18 -13 30 -13 29 0
42 -9 72 -50 14 -19 25 -29 25 -22 0 7 8 12 19 12 10 0 21 9 24 20 3 13 10 18
21 14 11 -4 16 -1 16 10 0 13 6 15 28 10 15 -4 33 -11 40 -17 29 -23 1 -74
-35 -63 -19 6 -51 -8 -37 -17 5 -2 41 0 79 5 90 12 172 3 178 -20 3 -9 5 300
5 688 1 602 -1 708 -13 724 -20 26 -19 50 0 42 13 -5 15 64 15 580 0 322 -3
584 -7 582 -5 -2 -25 -12 -45 -22 -35 -18 -38 -18 -62 -2 -38 25 -40 95 -3
135 55 61 90 158 102 281 3 41 8 92 11 113 5 48 -10 48 -97 -2z m-650 -833
c38 -3 45 -6 48 -28 2 -14 -5 -59 -16 -100 -28 -108 -38 -190 -27 -225 5 -17
29 -55 52 -86 56 -76 62 -88 68 -145 12 -122 19 -155 32 -150 10 4 14 -3 14
-22 0 -16 5 -33 12 -40 7 -7 13 -27 14 -45 1 -17 5 -40 9 -49 5 -13 0 -20 -19
-28 -14 -5 -26 -15 -26 -23 0 -12 -34 -55 -87 -110 -22 -23 -25 -32 -16 -45 8
-13 6 -26 -9 -56 -19 -36 -19 -41 -4 -51 9 -7 16 -21 17 -31 0 -28 32 -101 54
-127 15 -17 19 -36 19 -82 -2 -86 -24 -130 -79 -156 -46 -21 -54 -36 -34 -56
7 -7 8 -19 4 -30 -4 -10 -8 -26 -9 -35 -1 -10 -5 -19 -11 -20 -16 -5 -55 63
-55 96 0 38 -24 76 -83 130 -37 34 -44 46 -40 68 3 18 -2 36 -18 57 -22 30
-22 34 -9 79 22 77 24 120 6 147 -9 14 -22 22 -30 19 -18 -7 -72 21 -80 41
-18 47 24 190 85 295 15 25 30 59 33 77 6 28 4 34 -21 49 -15 10 -30 19 -32
21 -3 2 -8 33 -13 70 -9 81 5 114 46 106 l26 -5 -16 38 c-9 22 -22 46 -30 55
-18 20 -18 36 2 90 8 24 22 74 29 112 16 71 51 150 93 206 25 33 25 33 41 13
11 -14 30 -22 60 -24z m-1339 -1164 c0 -8 5 -13 11 -11 6 1 14 -4 16 -10 3 -7
0 -13 -7 -13 -7 0 -8 -6 -2 -17 11 -20 27 -122 23 -138 -3 -11 -9 -58 -10 -90
-2 -19 -3 -19 -21 4 -13 15 -20 38 -20 65 0 25 -10 60 -25 88 -28 53 -32 83
-11 91 7 3 12 16 11 30 -2 20 1 24 16 20 10 -3 19 -12 19 -19z"/>
<path d="M1592 4598 c-7 -7 -12 -19 -12 -27 1 -14 3 -13 14 2 17 21 40 23 32
1 -3 -9 -6 -20 -6 -24 0 -5 -19 -15 -42 -22 -24 -6 -45 -15 -48 -20 -3 -4 -22
-9 -41 -11 -49 -5 -98 -44 -120 -95 -10 -24 -38 -73 -62 -110 -97 -152 -134
-255 -137 -379 -1 -51 2 -93 6 -93 4 0 13 8 20 18 12 16 13 16 14 0 0 -9 -5
-20 -11 -24 -8 -4 -9 -29 -4 -78 4 -39 9 -107 11 -151 3 -102 11 -186 18 -192
2 -3 1 -15 -4 -27 -8 -22 6 -52 25 -51 82 6 104 17 139 66 20 27 36 58 36 69
0 11 5 20 11 20 8 0 10 22 7 68 -6 75 11 119 47 128 12 3 29 20 39 39 25 45
75 95 95 94 12 0 11 -2 -4 -9 -12 -4 -34 -27 -49 -51 -50 -75 -44 -210 12
-296 8 -13 12 -23 9 -23 -11 0 -57 51 -57 62 0 6 -3 9 -6 5 -4 -3 3 -22 14
-41 17 -29 21 -52 12 -76 -3 -6 -3 -8 -14 -73 -5 -26 -19 -63 -32 -83 -13 -19
-23 -38 -22 -42 1 -4 -6 -23 -14 -42 -9 -19 -19 -43 -22 -53 -3 -10 -11 -15
-17 -11 -8 5 -8 1 0 -14 7 -14 8 -23 1 -27 -5 -3 -10 -12 -10 -18 0 -7 4 -6
10 3 5 8 10 10 10 4 0 -5 -6 -19 -14 -29 -13 -18 -15 -17 -43 13 -16 18 -48
69 -71 115 -44 85 -51 97 -89 157 -34 52 -28 19 11 -58 75 -148 173 -279 321
-428 33 -33 79 -82 102 -107 38 -43 73 -61 73 -37 0 6 9 10 20 10 13 0 20 7
20 19 0 11 9 22 20 26 11 3 36 26 56 51 55 67 58 68 176 34 144 -42 200 -39
247 11 16 17 21 36 21 74 0 45 3 54 30 73 21 16 32 34 36 61 4 25 17 50 35 67
18 17 32 43 35 66 6 38 7 38 53 38 50 0 64 6 73 30 4 11 -1 16 -15 17 -11 1
-23 7 -27 14 -4 6 -12 9 -18 5 -15 -9 -64 12 -57 24 4 6 15 8 26 5 10 -4 19
-2 19 3 0 12 -34 42 -47 42 -5 0 -15 10 -22 23 l-12 22 5 -22 c3 -19 -1 -23
-22 -24 -35 -2 -43 -3 -65 -13 -10 -5 -23 -3 -32 4 -8 7 -24 10 -34 7 -31 -8
-45 55 -15 67 10 4 13 13 9 26 -5 15 -3 18 9 14 8 -3 17 -12 20 -19 4 -11 12
-10 44 5 22 11 50 19 63 18 58 -2 65 2 84 47 10 25 20 43 23 40 3 -3 11 4 19
15 8 11 20 17 28 14 8 -4 15 -1 15 5 0 6 -4 11 -9 11 -5 0 -13 17 -18 38 -8
36 -11 37 -63 45 -30 5 -63 9 -72 10 -9 1 -14 6 -11 11 4 5 -3 7 -15 4 -13 -4
-23 0 -26 9 -4 9 0 13 12 12 38 -6 68 10 70 37 4 48 45 75 55 37 4 -17 5 -17
6 0 1 18 21 25 21 7 0 -7 7 -7 20 0 16 9 22 7 27 -6 6 -15 7 -15 14 4 4 11 6
32 3 46 -3 18 2 29 16 38 11 7 20 18 20 24 0 10 57 44 75 44 14 0 63 64 58 76
-3 8 1 14 8 14 12 0 12 2 0 9 -9 6 -10 11 -2 15 6 4 11 29 11 55 0 35 -8 59
-30 94 -32 51 -49 63 -26 20 7 -16 14 -39 15 -53 1 -14 3 -40 4 -59 1 -23 -3
-36 -13 -39 -13 -5 -13 -3 -1 11 7 10 9 17 3 17 -5 0 -8 8 -5 18 2 10 -7 38
-21 62 -14 25 -26 53 -26 62 0 10 -13 38 -28 62 -22 34 -32 42 -40 34 -9 -9
-12 -9 -12 0 0 14 -80 102 -92 102 -5 0 -8 -12 -8 -27 0 -38 -15 -61 -24 -38
-10 26 -7 47 5 39 6 -3 3 5 -6 20 -19 29 -27 34 -19 11 4 -8 2 -15 -4 -15 -5
0 -15 7 -22 15 -7 8 -17 15 -23 15 -5 0 -3 -8 6 -18 21 -23 21 -28 1 -36 -19
-7 -54 28 -54 53 0 12 -2 13 -9 3 -14 -22 -139 26 -173 67 -21 25 -22 28 -5
34 6 2 0 2 -14 0 -31 -5 -121 16 -130 30 -17 25 -229 -9 -213 -35 3 -4 -2 -8
-11 -8 -8 0 -18 7 -22 15 -5 14 -120 75 -141 75 -4 0 -13 -5 -20 -12z m528
-899 c0 -5 4 -8 9 -4 5 3 12 -4 16 -15 4 -11 11 -17 17 -14 6 4 9 1 6 -6 -5
-15 -83 -41 -94 -31 -4 3 -4 0 0 -6 4 -7 18 -13 32 -13 27 0 31 -12 9 -30 -8
-7 -15 -17 -15 -22 0 -6 7 -5 15 2 15 13 19 8 16 -22 -1 -9 3 -19 9 -23 8 -5
8 -11 -1 -21 -9 -11 -9 -17 0 -28 14 -16 -1 -56 -20 -56 -6 0 -7 -4 -4 -10 3
-5 1 -10 -4 -10 -6 0 -11 5 -11 10 0 6 -5 10 -10 10 -6 0 -10 -6 -9 -12 4 -30
-2 -48 -15 -48 -21 0 -31 21 -15 31 11 7 10 9 -3 9 -10 0 -18 7 -18 16 0 8 4
13 9 10 11 -7 0 48 -12 55 -10 7 -14 68 -6 84 3 6 6 23 7 38 2 34 24 77 30 59
2 -6 13 -12 25 -12 20 0 20 1 2 13 -17 14 -17 15 1 35 21 23 34 27 34 11z"/>
<path d="M3919 4087 c15 -19 4 -27 -35 -27 -45 0 -182 -71 -224 -117 -19 -21
-26 -31 -15 -22 33 25 96 50 107 43 7 -4 8 -2 4 4 -4 7 0 12 10 12 10 0 25 7
34 15 9 8 46 22 82 31 61 15 67 15 92 -1 14 -10 26 -21 26 -25 0 -4 16 -24 35
-44 31 -33 35 -35 35 -16 0 33 -31 92 -51 97 -10 3 -16 10 -13 17 2 6 -5 12
-16 13 -11 1 -27 9 -36 17 -20 20 -52 22 -35 3z"/>
<path d="M5960 4005 c-6 -8 -9 -18 -6 -24 7 -11 -59 -113 -68 -104 -3 3 -3 17
0 30 6 22 5 23 -20 12 -26 -12 -35 -29 -16 -29 5 0 12 -11 16 -24 4 -18 15
-26 40 -31 19 -3 64 -19 100 -35 36 -17 77 -30 91 -30 17 0 40 -16 74 -52 51
-56 65 -94 29 -83 -22 7 -27 -12 -11 -43 11 -20 21 -63 18 -77 -3 -14 -40 -6
-54 13 -12 14 -13 14 -13 -1 0 -19 -20 -23 -36 -7 -14 14 -118 40 -158 40 -19
0 -39 -7 -46 -15 -13 -15 -35 -21 -26 -7 2 4 -10 6 -28 4 -19 -2 -47 3 -65 12
-49 26 -88 -3 -61 -44 9 -15 11 -13 14 13 1 6 10 11 20 9 11 -2 15 1 11 7 -10
17 11 13 25 -4 7 -8 10 -26 8 -40 -3 -13 -1 -22 3 -19 5 3 9 12 9 20 0 8 5 14
11 14 5 0 7 -4 4 -10 -3 -5 -1 -10 4 -10 6 0 10 -11 9 -25 -1 -14 -6 -25 -11
-25 -4 0 -5 -6 0 -12 12 -21 12 -38 0 -35 -7 1 -12 -9 -12 -23 0 -14 -3 -27
-6 -30 -4 -3 -9 -15 -13 -27 -6 -17 -3 -23 8 -23 9 0 16 -4 16 -9 0 -9 -57 -8
-66 2 -4 3 -17 -1 -30 -10 -13 -8 -30 -13 -38 -10 -21 8 -39 -19 -33 -50 3
-15 1 -36 -4 -45 -7 -12 -6 -18 2 -18 6 0 16 14 22 30 6 17 16 30 21 30 5 0 1
6 -10 14 -18 14 -18 15 9 21 17 5 35 2 50 -7 12 -8 34 -18 50 -22 39 -9 33
-26 -8 -22 -19 1 -35 1 -35 -1 0 -2 23 -14 50 -26 57 -26 56 -40 -3 -30 -29 4
-38 3 -33 -5 4 -7 2 -12 -3 -12 -16 0 -37 -60 -36 -100 1 -33 5 -36 51 -52 27
-9 65 -17 85 -18 49 0 99 -11 99 -21 0 -4 -5 -20 -12 -36 -6 -15 -10 -38 -9
-49 1 -12 -5 -24 -14 -28 -33 -12 -151 68 -198 134 -15 21 -14 19 2 -15 11
-23 53 -73 94 -112 l75 -71 -34 -48 c-19 -27 -42 -72 -50 -101 -8 -28 -26 -68
-40 -88 -29 -43 -29 -41 -4 -48 13 -3 20 0 20 9 0 12 4 12 20 4 16 -9 20 -8
20 5 0 8 5 15 11 15 7 0 8 -7 3 -17 -4 -10 -17 -46 -29 -80 -12 -35 -25 -60
-28 -57 -3 3 -3 -9 0 -28 3 -18 9 -36 15 -39 5 -3 -20 -15 -56 -25 -77 -22
-75 -16 -45 -147 42 -192 220 -943 230 -974 11 -35 35 -47 26 -13 -6 24 6 33
45 32 23 -1 38 11 79 60 47 56 49 61 34 78 -15 17 -14 18 22 24 44 8 213 5
213 -3 0 -3 -27 -43 -60 -89 -33 -46 -60 -85 -60 -88 0 -2 19 -4 43 -4 42 0
42 1 95 82 28 45 52 77 52 72 0 -5 -16 -34 -36 -64 -61 -93 -61 -90 -11 -90
l43 0 45 77 c24 42 45 80 47 84 2 5 -32 10 -75 12 -43 3 47 3 199 2 193 -1
279 1 282 9 3 7 8 6 15 -4 9 -12 12 -13 20 -1 5 8 11 9 15 3 3 -6 39 -11 80
-11 41 0 78 -1 82 -2 23 -4 26 2 9 15 -19 14 -19 15 7 40 16 17 28 22 30 15 3
-9 9 -9 25 -1 12 7 34 9 50 6 31 -6 48 7 55 41 2 12 12 20 23 21 33 2 39 4 63
24 18 15 21 23 13 38 -12 23 25 148 111 372 31 80 64 175 73 213 10 37 21 67
24 67 4 0 3 37 -1 83 -11 101 -3 157 28 219 13 26 24 50 24 53 0 3 -33 5 -72
4 -40 0 -66 -3 -58 -7 14 -6 17 -18 10 -39 -1 -5 -2 -11 -1 -15 0 -5 -3 -8 -8
-8 -5 0 -14 -15 -21 -32 -7 -18 -25 -60 -40 -93 -42 -92 -119 -356 -125 -430
-1 -11 -5 -28 -37 -150 -11 -44 -23 -93 -26 -110 -8 -45 -107 -214 -119 -202
-2 3 9 35 26 71 32 69 66 175 100 312 l21 81 -21 94 c-23 105 -65 257 -104
369 -14 41 -32 122 -40 179 -8 57 -16 105 -18 107 -2 2 -19 6 -38 9 -30 5 -31
4 -10 -5 19 -8 22 -13 13 -22 -7 -7 -12 -20 -12 -29 0 -25 -11 -29 -55 -19
-45 10 -61 4 -44 -16 9 -11 9 -18 1 -26 -9 -9 -8 -16 3 -28 13 -14 12 -18 -4
-32 -17 -15 -18 -14 -18 9 0 14 -8 32 -16 41 -15 14 -17 14 -23 -2 -4 -10 1
-25 12 -37 16 -18 16 -23 4 -42 -12 -20 -12 -21 3 -8 11 8 17 9 17 2 0 -6 8
-10 18 -8 9 1 17 -2 17 -8 0 -5 -10 -10 -21 -10 -23 1 -22 -20 0 -40 9 -7 7
-15 -8 -29 -16 -16 -18 -17 -13 -3 7 19 -1 21 -22 8 -9 -6 -10 -11 -2 -15 6
-4 9 -12 5 -17 -4 -6 -14 -3 -26 8 -19 17 -19 17 -8 -9 12 -26 8 -60 -7 -56
-11 3 -113 -32 -113 -39 0 -2 33 -2 74 2 l74 7 25 -38 c35 -56 117 -243 117
-267 0 -5 -7 -7 -15 -3 -23 8 -18 -2 13 -29 31 -28 20 -32 -32 -10 -30 13 -36
13 -36 1 0 -8 10 -16 23 -20 31 -8 105 -78 89 -84 -10 -3 -9 -9 5 -25 l18 -21
-28 17 c-15 10 -39 22 -55 28 -25 9 -24 7 11 -24 20 -19 37 -42 37 -53 -1 -18
-1 -18 -11 -1 -13 22 -30 22 -22 0 6 -16 5 -16 -10 -4 -24 19 -32 8 -14 -21 8
-12 17 -36 20 -53 4 -16 4 -24 1 -17 -3 6 -10 10 -14 7 -5 -3 -14 12 -20 34
-16 59 -28 58 -22 -2 4 -45 3 -50 -10 -40 -8 7 -18 9 -23 5 -4 -4 -5 6 -1 22
7 27 6 27 -10 11 -21 -20 -57 -35 -89 -35 -28 0 -77 -54 -69 -75 4 -8 -1 -18
-10 -21 -9 -3 -16 -10 -16 -15 0 -30 -101 -78 -137 -65 -8 3 -12 2 -9 -3 3 -4
-20 -14 -52 -20 -31 -7 -68 -15 -81 -18 -20 -5 -19 -2 13 31 21 20 34 41 31
46 -3 6 -1 10 5 10 7 0 9 7 6 16 -3 8 -2 12 4 9 6 -3 10 0 10 9 0 8 6 17 13
20 6 3 -1 3 -18 0 -16 -3 -37 -13 -46 -23 -60 -64 -168 -105 -305 -117 l-71
-6 -7 28 c-9 35 -72 163 -92 185 -22 24 -17 39 14 39 34 1 160 24 187 35 16 7
18 6 8 -6 -31 -32 -16 -34 82 -11 22 6 82 19 134 31 92 20 120 37 121 71 0 8
9 35 20 59 21 46 18 71 -6 46 -9 -8 -23 -15 -32 -15 -11 0 -6 8 15 22 25 17
31 28 26 43 -3 11 -7 34 -8 51 -1 17 -5 35 -8 40 -3 5 -1 48 5 94 11 88 37
145 82 181 21 17 21 17 -9 12 -27 -4 -28 -3 -13 10 10 8 15 17 11 21 -4 3 7
20 23 37 16 17 25 30 19 29 -22 -5 -29 1 -15 11 11 7 12 12 3 15 -8 4 -9 13
-1 35 6 17 8 33 4 36 -3 3 -8 0 -10 -8 -2 -8 -25 -77 -49 -154 -25 -77 -51
-169 -58 -205 -15 -79 -24 -92 -63 -88 -27 3 -31 6 -28 28 2 14 8 30 13 36 11
13 0 57 -18 67 -7 4 -14 16 -14 25 -3 33 -18 -74 -18 -130 -1 -43 -5 -60 -18
-67 -16 -9 -16 -12 -3 -21 13 -8 13 -10 -1 -10 -8 0 -26 -19 -39 -42 -13 -24
-47 -80 -77 -125 -49 -74 -58 -83 -91 -88 -20 -3 -49 -8 -65 -10 -45 -7 -71
26 -64 84 l5 46 -19 -24 -19 -23 0 50 c0 35 6 57 21 76 11 14 26 43 32 64 6
20 11 39 12 42 1 3 10 22 19 44 20 45 14 59 -13 25 -10 -13 -28 -35 -40 -49
l-22 -25 7 30 c18 80 7 205 -19 205 -5 0 -7 9 -4 20 3 11 1 20 -4 20 -13 0
-31 80 -24 107 3 14 2 22 -4 19 -5 -3 -16 11 -24 31 -13 33 -13 39 1 53 9 8
19 15 23 15 4 0 10 3 14 7 4 4 16 -2 28 -12 26 -25 36 -17 13 9 -24 26 -45 88
-46 132 0 19 -11 57 -25 84 -22 45 -23 49 -7 61 9 8 20 14 24 14 16 0 111 85
138 122 31 43 40 69 16 49 -11 -9 -15 -8 -20 5 -8 21 -8 26 2 21 4 -3 7 8 8
24 1 16 9 38 18 48 9 10 14 25 10 35 -7 19 -20 21 -27 4 -4 -8 -6 -9 -6 -2 -1
6 5 27 13 46 18 41 41 64 51 48 3 -5 18 -9 33 -9 15 1 20 3 10 6 -18 5 -33 33
-18 33 13 0 13 37 0 45 -6 4 1 27 16 58 34 67 71 104 65 65 0 -4 6 -5 14 -2
21 9 19 30 -7 56 -12 12 -17 23 -11 25 6 2 8 13 5 25 -3 14 -1 19 6 14 7 -4
15 9 23 36 11 42 49 93 49 66 0 -9 3 -9 10 2 9 13 10 13 10 0 1 -12 3 -11 11
3 6 10 7 31 3 50 -4 18 -7 37 -6 44 8 42 -106 210 -135 199 -7 -3 -13 1 -13 9
0 8 -5 15 -11 15 -6 0 -8 -7 -5 -16 3 -9 2 -12 -5 -9 -6 4 -8 13 -5 20 6 17
-13 35 -30 28 -8 -3 -20 -1 -27 5 -6 5 -38 12 -69 15 -31 3 -63 9 -70 13 -25
16 -56 19 -81 9 -13 -6 -16 -3 -11 9 8 20 -9 21 -26 1z m216 -627 c3 -4 13 -4
21 -1 14 5 32 -11 33 -29 0 -4 -13 -21 -30 -38 -18 -19 -30 -41 -30 -57 0 -23
-2 -25 -12 -11 -7 9 -25 18 -40 22 -19 4 -26 11 -22 21 4 8 1 15 -5 15 -11 0
-16 -19 -12 -54 1 -16 -1 -17 -14 -6 -19 16 -19 46 0 54 8 3 15 10 15 16 0 6
-4 8 -10 5 -5 -3 -10 -1 -10 4 0 6 5 11 12 11 6 0 8 3 5 7 -10 10 13 33 34 33
10 0 23 -8 29 -17 9 -15 10 -14 6 9 -4 19 -2 26 9 24 8 -1 17 -5 21 -8z"/>
<path d="M3710 3725 c0 -3 12 -10 26 -15 34 -13 23 -26 -30 -34 -24 -4 -50
-13 -56 -21 -7 -8 -17 -12 -23 -8 -5 3 -7 1 -3 -5 3 -5 1 -12 -6 -14 -6 -2 -8
-10 -4 -16 4 -7 16 -10 27 -7 11 4 30 -2 47 -13 15 -10 40 -22 57 -26 28 -7
29 -9 12 -21 -13 -9 -14 -14 -6 -17 23 -8 59 16 59 39 0 15 7 23 23 25 19 3
22 10 25 54 l3 52 -47 16 c-46 15 -104 22 -104 11z"/>
<path d="M3745 3398 c-27 -27 -60 -54 -73 -59 -18 -7 -22 -14 -17 -29 4 -12 0
-31 -9 -45 -21 -31 -20 -35 4 -35 11 0 20 -6 21 -12 0 -7 5 -3 11 10 6 12 15
22 20 22 14 0 77 -44 83 -58 3 -8 -2 -20 -10 -28 -22 -23 -19 -31 22 -51 27
-12 38 -14 41 -5 2 7 13 12 24 12 15 0 19 5 15 20 -3 13 1 21 15 26 13 4 18
12 15 24 -3 11 4 26 16 37 15 13 18 14 13 3 -4 -8 1 -5 12 7 11 12 23 19 27
15 5 -4 5 -1 1 6 -4 6 -14 12 -22 12 -9 0 -12 5 -8 11 5 9 -24 10 -110 7 -96
-4 -116 -3 -112 8 7 19 -4 17 -27 -3 -19 -17 -19 -17 -6 4 12 20 43 37 62 34
4 -1 6 5 5 12 -2 6 5 11 14 9 13 -2 16 2 11 15 -6 17 -5 17 15 -1 11 -10 32
-19 45 -20 14 0 23 -4 21 -7 -2 -4 5 -14 15 -23 15 -14 24 -15 40 -6 12 6 21
13 21 16 0 3 -4 2 -10 -1 -9 -6 -14 8 -11 28 2 12 -45 26 -67 20 -24 -6 -35
10 -34 48 1 40 -15 35 -73 -23z"/>
<path d="M3105 3103 c4 -32 10 -69 12 -83 3 -14 5 -36 6 -50 1 -14 4 -27 7
-30 4 -3 14 -35 24 -72 l18 -67 24 16 c35 22 224 230 224 245 0 10 -3 9 -9 -1
-5 -7 -13 -11 -18 -8 -5 3 -26 -5 -46 -18 -20 -14 -41 -25 -48 -25 -6 0 -8 -7
-5 -16 5 -13 4 -14 -7 -5 -11 8 -18 7 -31 -8 -19 -21 -52 -24 -73 -8 -9 6 -13
5 -13 -4 0 -8 -9 3 -20 24 -12 21 -24 67 -27 103 -3 35 -10 64 -16 64 -6 0 -6
-22 -2 -57z"/>
<path d="M3580 3040 c0 -19 -10 -40 -30 -60 -16 -17 -30 -36 -30 -43 0 -7 -15
-20 -34 -28 -31 -15 -36 -15 -50 0 -12 11 -19 12 -27 4 -8 -8 -8 -13 0 -17 18
-11 13 -37 -6 -34 -12 2 -18 -3 -17 -14 2 -22 -4 -22 -30 -1 -12 10 -16 11 -9
4 10 -12 4 -22 -30 -55 -64 -63 -117 -126 -106 -126 17 0 -2 -21 -27 -30 -13
-5 -29 -22 -35 -37 -6 -16 -15 -35 -20 -45 -5 -11 -4 -18 6 -21 21 -9 53 3 58
22 2 11 27 24 66 36 33 10 61 22 61 26 0 5 -12 15 -27 24 l-28 16 27 -4 c23
-3 25 -2 15 14 -6 10 -16 15 -22 13 -5 -3 7 11 29 30 28 26 43 33 55 27 9 -5
35 -11 58 -15 34 -4 41 -3 36 9 -3 8 -1 15 5 15 9 0 57 69 55 80 -1 3 6 12 15
20 14 13 15 12 8 -5 -5 -11 -12 -36 -17 -55 -4 -19 -17 -42 -29 -52 -22 -18
-18 -44 9 -51 14 -3 22 7 35 47 10 28 20 58 23 66 3 8 7 25 9 38 1 12 17 52
34 88 17 37 29 69 26 72 -4 3 -6 0 -6 -6 0 -7 -5 -12 -11 -12 -7 0 -18 -8 -25
-17 -7 -10 -15 -15 -19 -12 -3 4 0 13 7 20 8 8 24 30 36 50 l22 37 -22 6 c-36
9 -38 8 -38 -24z"/>
<path d="M3982 2807 c-12 -13 -19 -27 -15 -30 3 -4 -2 -14 -13 -23 -10 -8 -13
-13 -6 -9 7 4 12 0 12 -9 0 -9 -9 -14 -22 -14 -81 5 -103 -2 -151 -47 -26 -25
-54 -45 -62 -45 -8 0 -30 -13 -48 -30 -19 -16 -38 -30 -43 -30 -5 0 -28 -8
-51 -17 -42 -17 -55 -37 -31 -45 6 -2 -6 -12 -27 -22 -20 -10 -68 -40 -104
-67 -59 -43 -131 -73 -131 -55 0 3 18 15 39 26 22 10 41 23 43 28 1 4 20 18
41 31 20 12 37 26 37 31 0 13 -73 21 -81 8 -6 -9 -14 -9 -32 1 -21 11 -32 9
-88 -14 -35 -15 -84 -28 -108 -29 -48 -2 -81 -30 -81 -70 0 -42 -23 -76 -57
-82 -40 -8 -63 -31 -43 -44 12 -7 11 -10 -3 -16 -9 -3 -17 -12 -17 -19 0 -14
-45 -29 -59 -20 -5 2 -11 -4 -14 -15 -3 -11 -14 -20 -24 -20 -20 0 -63 -39
-63 -57 0 -10 -101 -63 -120 -63 -6 0 -10 -7 -10 -16 0 -8 -4 -12 -10 -9 -5 3
-10 1 -10 -4 0 -6 -7 -11 -16 -11 -10 0 -14 6 -10 15 9 25 -31 -5 -43 -32 -7
-15 -16 -21 -26 -17 -11 5 -57 -34 -153 -127 -113 -111 -146 -138 -189 -152
-28 -10 -82 -39 -120 -64 -82 -54 -82 -54 -65 -61 34 -11 81 -66 106 -122 60
-134 74 -332 34 -498 -18 -78 -20 -97 -10 -125 19 -52 15 -68 -18 -80 -16 -6
-30 -15 -30 -19 0 -4 -6 -5 -13 -2 -11 4 -37 -32 -37 -51 0 -2 26 9 58 25 63
30 154 60 185 60 10 0 47 13 82 29 59 28 87 35 127 32 21 -1 50 -43 52 -74 1
-14 7 -21 16 -18 8 2 26 6 40 9 14 3 27 8 30 12 3 4 16 10 30 14 19 6 21 5 10
-3 -12 -9 -11 -11 8 -11 12 0 22 5 22 11 0 5 5 7 10 4 6 -3 10 -1 10 5 0 7 8
9 19 5 10 -3 24 1 31 10 10 12 10 15 -1 15 -9 1 -7 6 6 16 11 8 19 20 17 26
-2 7 2 7 12 -1 10 -8 16 -9 21 -1 3 5 17 10 31 10 14 0 23 4 20 9 -7 11 22 23
35 16 5 -4 6 2 2 11 -5 13 -3 16 10 11 9 -3 17 -3 17 2 0 4 14 8 32 9 18 0 38
8 45 18 7 10 13 13 13 6 0 -9 6 -10 18 -4 9 5 28 8 42 8 14 -1 31 5 38 12 16
14 36 16 27 2 -3 -5 1 -10 10 -10 10 0 13 5 9 12 -5 8 2 9 24 5 19 -4 32 -2
32 3 0 6 -9 10 -21 10 -11 0 -17 4 -14 10 4 7 -3 8 -20 4 -25 -6 -26 -5 -14
13 8 14 20 19 38 16 14 -3 33 -4 41 -4 8 1 41 2 73 4 31 1 57 0 57 -4 0 -3 14
-6 32 -6 18 0 34 -5 36 -11 2 -6 10 -8 18 -5 8 3 14 0 14 -6 0 -6 -7 -11 -15
-11 -17 0 -20 -16 -5 -25 6 -3 17 1 26 9 17 17 27 19 62 10 18 -5 20 -9 11
-20 -13 -16 2 -19 17 -4 6 6 19 12 30 14 10 3 60 20 110 40 81 31 95 34 129
25 23 -6 62 -8 94 -4 58 8 240 8 301 0 30 -4 31 -3 10 4 -14 5 -45 10 -70 10
-57 2 -109 20 -140 48 -13 13 -27 23 -32 23 -4 0 -8 5 -8 10 0 16 30 12 105
-15 41 -15 92 -25 123 -25 l54 0 -4 57 c-3 55 -2 58 25 71 16 8 90 17 170 22
78 5 143 9 145 10 2 0 1 4 -2 9 -4 5 20 12 51 15 32 3 65 6 73 7 8 1 24 -1 35
-5 15 -5 14 -4 -2 5 -13 7 -23 18 -23 26 0 7 -11 13 -26 13 -14 0 -35 5 -47
12 -12 6 -55 11 -95 9 -56 -1 -73 2 -70 11 3 7 13 13 24 13 11 0 18 6 16 14
-2 11 0 12 10 4 7 -6 42 -14 78 -17 61 -6 64 -6 45 9 -20 16 -20 16 0 31 31
23 9 48 -43 48 -23 0 -42 4 -42 8 0 4 -3 7 -7 7 -5 -1 -16 -1 -26 0 -16 1 -15
5 7 34 31 40 32 47 8 40 -28 -7 -75 -50 -63 -58 6 -3 11 -18 11 -32 0 -21 -2
-23 -15 -13 -12 10 -20 6 -45 -21 -16 -19 -30 -38 -30 -44 0 -13 -42 -55 -55
-55 -5 0 -17 -8 -27 -17 -15 -13 -44 -17 -144 -20 -70 -2 -131 -6 -137 -10 -6
-4 -7 -1 -2 7 6 10 1 12 -26 7 -26 -5 -30 -4 -16 4 9 5 17 15 17 21 0 6 -12 2
-27 -7 -25 -17 -26 -17 -19 0 4 11 1 22 -6 27 -18 11 -30 10 -23 -2 9 -14 -39
-12 -53 2 -9 9 -12 8 -12 -6 0 -25 -32 -64 -49 -58 -10 3 -12 0 -7 -13 5 -14
2 -16 -17 -11 -17 4 -30 -1 -47 -19 -13 -14 -31 -25 -41 -25 -10 0 -20 -4 -24
-10 -8 -12 -105 -1 -141 17 -78 40 -134 57 -134 42 0 -5 -18 -9 -40 -9 -29 0
-40 4 -40 15 0 8 -7 15 -15 15 -8 0 -15 5 -15 10 0 6 -11 10 -24 10 -13 0 -26
3 -28 8 -9 20 -75 57 -97 54 -18 -3 -21 -6 -10 -12 7 -5 10 -12 6 -17 -5 -4
-12 -1 -17 7 -14 21 -12 28 8 33 9 3 1 5 -18 6 -26 0 -31 -2 -20 -9 13 -8 12
-10 -2 -10 -25 0 -22 19 5 31 17 7 13 8 -20 4 -32 -4 -43 -2 -43 8 0 7 -13 26
-30 42 -16 16 -30 25 -30 21 0 -5 -7 -2 -17 5 -9 8 -14 10 -12 4 33 -70 41
-96 46 -152 4 -45 0 -96 -13 -164 -17 -90 -22 -104 -56 -138 -46 -48 -78 -71
-98 -70 -8 0 -3 5 13 11 29 10 37 28 12 28 -21 0 -19 20 3 21 10 0 12 3 4 6
-7 2 -32 -7 -56 -21 l-44 -26 -7 48 c-3 26 -17 66 -31 88 -31 55 -116 130
-181 162 -29 15 -53 29 -53 32 0 3 19 32 43 66 84 122 218 310 236 333 l19 25
31 -48 c16 -27 32 -51 33 -55 2 -3 21 -19 43 -36 22 -16 35 -23 29 -15 -6 8
-11 33 -12 55 -1 22 -7 87 -14 144 -10 94 -10 105 5 116 10 7 17 19 17 28 0 8
19 37 43 63 23 27 49 61 56 76 8 15 17 25 22 23 4 -3 9 0 11 5 5 16 82 40 89
28 4 -6 8 -6 10 -2 7 15 123 67 151 68 16 1 28 4 28 7 0 3 30 16 66 28 80 26
104 38 104 52 0 6 9 18 21 27 11 10 21 24 22 33 2 9 11 28 20 42 10 15 17 30
16 33 0 4 5 11 13 15 10 7 9 9 -4 9 -19 0 -31 30 -22 54 5 12 9 14 14 6 9 -15
76 2 72 19 -1 6 3 11 9 11 5 0 7 4 4 10 -4 6 1 7 11 3 12 -4 15 -3 10 5 -11
17 9 15 24 -3 11 -13 10 -14 -2 -10 -15 6 -48 -18 -48 -35 0 -5 -12 -10 -27
-12 -16 -2 -27 -10 -29 -21 -1 -9 1 -15 6 -12 5 3 11 -1 13 -7 4 -8 6 -7 6 4
1 9 -5 19 -11 22 -7 3 -4 5 7 4 22 -3 105 41 105 54 0 4 5 8 11 8 6 0 17 6 25
14 11 11 11 16 1 19 -9 4 -9 6 0 6 6 1 15 -3 18 -9 4 -6 15 -1 27 10 14 13 24
16 28 9 4 -6 10 2 13 18 3 15 9 36 12 46 6 14 3 16 -11 10 -14 -5 -16 -3 -11
11 4 10 7 21 7 26 0 18 53 70 71 70 10 0 19 5 19 10 0 6 4 10 9 10 6 0 26 15
45 33 32 29 34 34 21 51 -13 17 -17 17 -32 5 -11 -9 -14 -10 -9 -1 11 19 2 14
-22 -11z"/>
<path d="M1699 2572 c-25 -11 -219 -226 -219 -242 0 -9 -5 -21 -11 -27 -8 -8
-8 -25 2 -65 7 -29 12 -62 11 -73 -2 -14 0 -16 6 -7 9 13 43 -19 88 -85 22
-33 23 -42 19 -148 -2 -62 -9 -150 -15 -196 l-11 -82 41 -41 c41 -39 45 -53
26 -96 -4 -11 6 -20 36 -32 60 -24 77 -24 128 -1 25 11 53 23 63 26 12 5 16
13 12 29 -2 13 -12 68 -21 123 -21 129 -40 214 -67 295 -20 60 -21 87 -23 335
0 149 -1 276 -2 283 -2 13 -37 15 -63 4z m-97 -203 c-3 -22 -1 -30 7 -25 8 5
11 -26 11 -115 0 -103 -2 -120 -14 -110 -11 9 -16 9 -22 0 -4 -7 -3 -9 3 -6 6
4 13 -6 15 -24 5 -31 5 -30 -36 16 -56 65 -76 103 -76 148 0 46 24 107 42 107
8 0 9 -3 3 -8 -12 -8 -37 -63 -32 -68 2 -2 10 8 17 24 15 29 70 92 80 92 4 0
4 -14 2 -31z"/>
<path d="M3914 2487 c-5 -12 -15 -21 -22 -20 -6 2 -9 -3 -6 -10 2 -7 -10 -21
-28 -31 -31 -19 -31 -19 -9 -28 13 -4 28 -5 34 -2 9 5 9 4 0 -6 -9 -10 -18 -9
-44 4 -20 10 -36 12 -43 7 -6 -5 -22 -11 -36 -13 -14 -1 -30 -10 -37 -18 -7
-8 -13 -12 -13 -9 0 4 -16 -9 -36 -27 -20 -19 -40 -32 -45 -29 -5 4 -9 1 -9
-4 0 -6 -6 -11 -12 -11 -7 -1 -26 -17 -42 -38 l-28 -37 7 -125 c4 -69 7 -136
5 -150 -3 -37 -3 -41 4 -90 4 -32 3 -38 -3 -20 -7 19 -10 8 -12 -50 -7 -159
-4 -232 9 -237 6 -3 12 -11 12 -18 0 -19 98 -30 117 -13 9 7 18 12 20 11 9 -7
23 -1 63 28 33 24 39 33 29 40 -11 7 -9 9 7 9 19 0 22 9 33 110 6 60 14 160
17 222 3 62 6 141 8 176 2 34 1 60 -2 57 -15 -14 -34 -86 -37 -135 -2 -30 -6
-62 -10 -71 -9 -22 -45 -12 -45 12 0 11 -7 19 -16 19 -8 0 -12 5 -9 10 4 6 11
8 16 5 5 -4 9 -1 9 4 0 6 -4 11 -10 11 -9 0 22 65 41 84 14 15 11 38 -8 51
-11 8 -13 17 -7 26 13 21 13 69 0 69 -6 0 -5 4 3 9 7 5 11 13 7 19 -7 12 41
45 54 37 6 -3 10 1 10 9 0 8 4 17 9 20 5 4 7 -3 4 -14 -3 -11 -1 -20 4 -20 6
0 8 -11 5 -25 -2 -14 -8 -23 -12 -20 -5 3 -6 -4 -3 -14 3 -10 0 -28 -6 -39 -7
-13 -7 -23 -2 -27 6 -3 15 14 22 37 13 50 28 95 39 123 5 11 16 44 25 72 14
45 14 55 3 72 -14 19 -14 19 -24 -2z"/>
<path d="M2535 2420 c10 -11 23 -17 29 -13 6 4 3 -3 -7 -15 -11 -12 -16 -26
-11 -33 4 -7 -1 -18 -12 -26 -11 -8 -15 -17 -9 -21 6 -4 10 -16 10 -27 0 -12
9 -21 25 -25 17 -4 21 -8 12 -14 -6 -4 -12 -18 -12 -32 0 -13 -4 -24 -10 -24
-5 0 -7 -13 -3 -30 3 -18 1 -30 -5 -30 -5 0 -12 -7 -15 -14 -4 -10 -1 -13 7
-10 8 3 15 -4 18 -20 3 -17 1 -23 -8 -19 -8 3 -11 -2 -7 -16 6 -22 33 -50 33
-34 0 6 26 36 58 69 31 32 80 91 109 130 l52 72 -25 23 c-16 15 -22 29 -18 42
4 12 2 17 -4 13 -11 -6 -34 48 -25 58 3 3 -23 3 -58 0 -35 -4 -81 -2 -103 4
-37 11 -38 11 -21 -8z"/>
<path d="M0 1270 l0 -1005 35 -24 c25 -17 36 -33 41 -60 10 -57 44 -119 73
-131 20 -8 47 -6 111 6 47 9 130 18 185 20 96 3 298 28 353 44 15 4 26 13 24
19 -1 6 5 25 13 41 24 46 20 68 -10 62 -15 -2 -25 0 -25 8 0 7 -8 9 -20 5 -26
-8 -26 11 0 25 35 19 25 45 -22 59 -92 28 -110 43 -67 56 19 6 19 8 4 25 -9
10 -32 21 -51 25 -19 3 -44 15 -55 26 -10 10 -23 19 -28 19 -16 0 -23 20 -13
33 17 22 20 66 5 71 -8 3 -13 14 -11 23 2 13 -3 17 -18 16 -29 -3 -41 37 -13
44 10 3 16 9 13 14 -3 5 0 9 6 9 7 0 24 8 38 19 15 10 44 24 64 32 46 16 49
29 7 29 -49 0 -30 23 39 45 73 24 81 40 15 30 -106 -17 -125 -16 -130 5 -7 26
-38 44 -116 69 -80 24 -119 44 -172 85 -39 30 -55 46 -55 57 0 4 65 4 91 0 3
-1 11 -12 17 -26 6 -14 27 -33 47 -42 30 -14 38 -15 60 -3 44 24 238 13 279
-16 26 -18 42 -18 26 0 -20 25 -142 83 -200 96 -30 7 -62 16 -70 21 -37 23
-92 45 -190 75 -104 33 -105 47 -1 19 29 -7 79 -17 109 -21 50 -6 55 -5 41 8
-8 8 -35 25 -59 37 -76 36 -106 55 -124 78 -13 17 -13 21 -2 17 8 -3 17 0 21
5 3 6 11 9 16 5 15 -9 96 -15 83 -6 -5 4 -20 23 -31 42 -23 38 -74 87 -111
108 -20 11 -24 9 -42 -20 -11 -18 -20 -40 -20 -48 0 -9 -16 -42 -36 -74 -43
-67 -45 -65 -67 44 -24 119 -28 184 -31 535 -1 228 -6 336 -14 350 -9 15 -11
-217 -12 -985z"/>
<path d="M4297 1763 c-4 -3 -2 -12 5 -20 9 -11 8 -13 -2 -11 -8 2 -20 -10 -28
-27 -8 -16 -27 -43 -42 -60 -15 -16 -31 -46 -35 -65 -8 -38 -40 -85 -58 -85
-7 0 -12 -14 -12 -32 1 -17 -2 -30 -6 -27 -4 2 -22 -10 -40 -28 l-34 -31 60 6
c33 3 80 13 104 22 24 8 54 15 66 15 12 0 28 7 35 15 10 13 9 15 -8 15 -12 0
-24 5 -28 11 -4 8 0 9 15 4 12 -3 36 -3 53 1 l32 6 -22 18 c-23 19 -30 36 -9
24 9 -6 9 -4 -1 8 -10 12 -10 17 -1 20 7 2 -4 14 -24 27 -20 12 -37 24 -37 26
0 1 6 18 14 36 19 49 29 119 16 119 -6 0 -8 5 -5 10 7 11 2 13 -8 3z"/>
<path d="M7786 1755 c-11 -8 -17 -18 -13 -21 3 -4 2 -16 -4 -26 -8 -14 -8 -23
0 -31 16 -16 14 -112 -3 -126 -11 -10 -23 -1 -60 44 -25 31 -46 60 -46 63 0 9
-50 32 -69 32 -13 -1 -12 -4 4 -16 25 -18 21 -44 -13 -103 -21 -37 -23 -46
-13 -63 7 -11 10 -22 7 -25 -3 -3 -8 2 -12 11 -3 9 -11 16 -17 16 -6 0 -18 6
-26 14 -9 8 -29 17 -46 21 -29 6 -29 6 -10 -10 11 -9 19 -21 18 -26 -2 -5 2
-9 7 -9 6 0 10 -7 10 -15 0 -8 -6 -15 -13 -15 -8 0 -19 -12 -26 -26 -12 -26
-12 -26 -33 -8 -20 18 -21 18 -15 1 5 -14 0 -19 -23 -24 -22 -4 -30 -11 -30
-27 0 -12 -9 -30 -21 -39 -20 -17 -21 -18 -34 -1 -12 17 -16 15 -65 -16 -45
-29 -49 -34 -34 -43 17 -10 17 -11 -1 -18 -17 -6 -16 -8 8 -8 29 -1 37 -27 15
-49 -6 -6 -10 -13 -7 -14 44 -28 80 -39 152 -48 158 -19 148 -22 229 57 40 39
98 92 128 119 30 27 54 53 53 59 -1 5 -5 21 -8 35 -5 20 5 38 56 98 68 80 68
78 33 200 -12 43 -18 52 -37 52 -12 0 -31 -7 -41 -15z"/>
<path d="M9359 1598 c-17 -15 -36 -28 -41 -28 -5 0 -14 -5 -21 -10 -7 -6 -43
-33 -82 -60 -38 -27 -85 -62 -103 -77 -47 -41 -52 -44 -105 -83 -27 -19 -56
-43 -65 -52 -9 -10 -22 -18 -28 -18 -7 0 -14 -7 -18 -15 -3 -8 -10 -15 -15
-15 -5 0 -27 -16 -48 -35 -21 -19 -44 -35 -50 -35 -18 0 -16 -5 12 -36 53 -57
20 -128 -65 -139 -25 -3 -57 -8 -71 -10 -19 -3 -36 4 -59 25 -37 33 -57 29
-86 -16 -13 -19 -14 -28 -5 -37 6 -6 11 -15 11 -19 0 -10 -41 14 -95 57 -22
18 -45 34 -50 36 -6 2 -42 23 -81 47 -75 45 -134 67 -134 51 0 -5 7 -9 15 -9
8 0 15 -4 15 -10 0 -5 -7 -7 -15 -4 -11 5 -13 2 -8 -12 5 -13 3 -16 -10 -11
-9 3 -17 2 -17 -3 0 -15 -28 -12 -33 3 -2 6 -9 -4 -15 -23 -6 -19 -11 -29 -11
-22 -2 21 -21 13 -21 -9 0 -11 -4 -17 -10 -14 -5 3 -15 -5 -21 -19 -9 -19 -22
-27 -55 -32 -34 -5 -44 -11 -44 -25 0 -11 -6 -19 -14 -19 -8 0 -31 -15 -51
-34 -20 -19 -44 -36 -53 -38 -9 -2 -21 -13 -27 -25 -5 -12 -20 -27 -32 -34
-13 -7 -23 -16 -23 -21 0 -4 -7 -8 -15 -8 -9 0 -18 -7 -21 -15 -4 -8 -14 -15
-23 -15 -22 0 -81 -66 -81 -91 0 -11 -8 -23 -17 -26 -23 -8 -53 -42 -53 -59 0
-7 -9 -19 -20 -27 -11 -8 -17 -17 -14 -20 4 -3 -7 -9 -22 -13 -33 -8 -54 -32
-47 -51 3 -7 0 -13 -6 -13 -6 0 -11 7 -11 16 0 11 -8 9 -35 -12 -24 -18 -42
-24 -57 -21 -13 4 -30 2 -38 -3 -8 -5 -19 -5 -25 0 -7 6 -27 3 -52 -5 -66 -23
-93 -26 -100 -9 -3 8 -9 14 -15 14 -12 0 0 -64 22 -115 15 -35 24 -42 66 -54
27 -8 57 -13 67 -12 9 1 17 -2 17 -6 0 -5 25 -8 55 -8 38 1 55 -3 55 -12 0 -7
6 -10 14 -7 8 3 17 1 21 -5 3 -6 16 -11 29 -11 16 0 25 -9 35 -35 7 -19 16
-33 20 -30 5 2 14 -22 21 -55 l13 -60 900 0 900 0 51 44 c28 24 75 55 104 70
32 16 56 36 62 51 25 66 94 193 120 220 35 37 70 99 70 125 0 10 5 22 10 25 6
3 10 13 10 22 0 11 -8 8 -26 -12 l-27 -29 -17 22 c-15 18 -19 19 -24 7 -9 -25
-33 -17 -39 14 -5 23 -12 30 -34 33 -17 2 -28 9 -28 18 0 12 15 16 65 18 101
3 113 3 120 -8 10 -16 53 -2 72 22 35 46 17 72 -67 98 -22 7 -51 20 -65 28
-47 29 -105 67 -110 73 -7 9 -203 139 -210 139 -3 0 -10 11 -17 25 -14 31 1
33 37 5 43 -34 58 -22 18 15 -21 18 -38 37 -38 40 0 13 94 -50 145 -97 16 -16
34 -28 38 -28 13 0 57 -37 51 -43 -3 -3 12 -18 33 -33 21 -16 40 -31 43 -34
14 -16 97 -57 107 -53 6 2 28 -3 49 -12 31 -13 40 -13 51 -3 22 23 -2 38 -70
45 -37 3 -67 10 -67 15 0 13 50 30 94 33 43 3 59 21 54 62 -3 23 -13 29 -94
57 -50 18 -103 39 -117 49 -15 9 -33 17 -40 17 -14 0 -78 29 -87 39 -12 15
-130 48 -152 44 -47 -9 -136 55 -122 87 4 8 6 27 5 42 -1 14 5 33 13 40 8 9
12 25 9 41 -4 21 -1 27 11 27 11 0 16 7 14 17 -2 14 10 21 62 35 36 9 57 16
48 17 -10 1 -18 5 -18 10 0 20 79 44 186 56 62 8 121 18 131 24 26 15 5 14
-101 -5 -86 -15 -115 -13 -86 7 8 5 60 23 115 41 60 19 92 33 80 36 -31 7
-175 -27 -230 -54 -27 -13 -63 -28 -80 -34 -28 -9 -27 -7 15 30 31 28 40 40
28 40 -24 0 -23 16 1 33 18 12 15 13 -29 13 -39 0 -55 -5 -81 -28z"/>
<path d="M5800 1560 c0 -5 -7 -10 -15 -10 -11 0 -13 -15 -9 -87 6 -99 10 -117
23 -109 13 9 31 -18 22 -33 -6 -10 -10 -8 -16 6 -6 13 -10 6 -16 -32 -4 -27
-7 -66 -7 -85 -1 -28 1 -31 8 -15 7 17 9 17 9 3 1 -13 9 -18 30 -18 34 0 54
-20 45 -46 -6 -18 -5 -17 10 1 13 14 16 15 13 4 -3 -9 -1 -22 4 -30 14 -21 2
59 -26 175 -13 55 -33 143 -45 194 -19 82 -30 111 -30 82z"/>
<path d="M9840 1316 c0 -4 -7 -6 -15 -2 -8 3 -15 1 -15 -4 0 -6 8 -10 18 -10
13 0 11 -4 -8 -15 -14 -8 -33 -18 -42 -21 -10 -3 -18 -10 -18 -15 0 -5 -7 -9
-16 -9 -9 0 -12 -5 -8 -11 4 -7 1 -10 -7 -7 -8 3 -21 0 -29 -6 -23 -18 -89
-38 -100 -31 -5 3 -10 -1 -10 -9 0 -12 -10 -16 -37 -16 l-38 -1 33 -28 c48
-41 197 -73 285 -60 9 1 17 6 17 10 0 4 34 10 75 14 70 7 75 9 75 31 0 20 -6
24 -47 29 -27 3 -57 10 -68 14 l-20 8 20 6 c11 3 41 8 68 12 l47 6 0 55 c0 47
-3 54 -19 54 -11 0 -23 5 -26 10 -8 13 -115 9 -115 -4z"/>
<path d="M6638 1293 c-21 -3 -34 -19 -68 -84 l-41 -79 51 0 51 0 35 74 c47
102 47 100 -28 89z"/>
<path d="M5981 1080 c16 -9 626 -30 892 -30 205 0 126 18 -105 24 -524 13
-803 16 -787 6z"/>
<path d="M930 972 c0 -5 10 -14 23 -21 20 -11 19 -11 -10 -6 -37 5 -42 -1 -15
-21 15 -12 14 -13 -13 -11 -19 1 -29 -2 -28 -10 2 -6 -1 -33 -6 -59 -8 -42 -6
-51 18 -85 14 -21 35 -41 45 -45 10 -3 37 -23 60 -43 23 -21 57 -48 76 -61 19
-13 60 -47 90 -75 44 -41 70 -56 130 -75 71 -23 158 -31 190 -19 8 3 12 4 9 2
-4 -2 -5 -13 -2 -23 7 -28 -5 -70 -20 -70 -37 0 -122 -35 -154 -63 -20 -18
-47 -55 -59 -84 -13 -28 -31 -54 -41 -56 -10 -3 -76 -15 -147 -28 -139 -25
-147 -30 -138 -90 l4 -29 219 0 c182 0 219 2 219 14 0 16 59 56 83 56 8 0 17
-7 21 -15 3 -8 12 -15 20 -15 9 0 20 -9 26 -20 10 -19 21 -20 320 -20 174 0
310 4 310 9 0 12 -56 19 -74 9 -10 -6 -16 -5 -16 2 0 5 7 10 15 10 9 0 15 9
15 23 0 41 14 52 48 38 34 -14 50 -54 31 -77 -10 -12 4 -14 92 -14 l104 0 67
45 c64 42 100 80 130 135 33 60 53 90 60 90 4 0 10 16 14 36 7 39 44 70 71 60
9 -4 19 -2 23 4 4 6 27 11 51 12 24 0 48 3 54 6 5 3 30 4 55 3 107 -7 300 -5
300 3 0 5 7 3 15 -4 12 -10 25 -10 60 -1 25 6 75 9 111 6 37 -3 81 -1 98 4 17
5 55 12 84 14 62 6 78 17 84 58 4 28 3 30 -19 26 -28 -5 -36 4 -27 37 8 32 42
42 46 12 2 -13 9 -19 18 -16 25 7 340 6 340 -2 0 -4 39 -7 88 -6 48 1 122 -2
165 -6 l77 -7 0 25 c0 14 -5 28 -11 31 -11 7 -1221 57 -1227 51 -2 -3 6 -7 17
-11 32 -10 25 -25 -11 -25 -287 -2 -428 -1 -448 3 -14 2 -20 2 -14 0 7 -2 10
-13 7 -23 -3 -11 -9 -17 -14 -14 -16 9 -30 -6 -18 -19 7 -7 30 -11 55 -8 47 3
62 21 18 21 -14 0 -23 4 -19 10 3 6 52 10 110 10 93 0 104 -2 98 -17 -4 -11
-3 -14 5 -9 7 4 12 3 12 -3 0 -23 -48 -33 -161 -35 -109 -1 -142 -8 -105 -22
14 -5 13 -13 -10 -77 -4 -9 -12 -17 -19 -17 -7 0 -15 -7 -19 -15 -8 -21 -26
-19 -26 3 -1 22 -23 52 -39 52 -7 0 -19 -7 -27 -15 -10 -9 -25 -12 -45 -8 -36
7 -79 -13 -79 -37 0 -9 -12 -23 -27 -30 -16 -8 -29 -15 -31 -16 -2 -1 11 -16
29 -33 36 -37 35 -62 -9 -126 -21 -30 -36 -41 -64 -46 -31 -5 -40 -2 -61 23
-28 31 -47 36 -47 13 0 -18 -17 -20 -22 -3 -7 19 -58 0 -58 -22 0 -39 -69 -47
-82 -10 -6 18 -36 0 -42 -25 -7 -27 -32 -28 -79 -5 -23 11 -32 12 -49 1 -14
-9 -28 -10 -47 -3 -14 6 -35 13 -46 17 -15 5 -16 8 -6 14 9 6 10 11 2 15 -6 4
-11 14 -11 23 0 8 -8 25 -17 36 -14 17 -27 21 -57 19 -21 -2 -43 1 -49 7 -19
19 5 30 48 22 46 -8 99 14 90 38 -3 7 6 25 20 39 14 13 25 29 25 33 0 5 8 8
18 7 58 -5 94 3 99 21 2 10 21 26 40 35 33 16 40 16 67 3 17 -8 55 -25 84 -38
28 -12 52 -26 52 -31 0 -4 10 -19 22 -33 16 -19 24 -22 35 -14 7 6 13 17 13
24 0 7 9 23 19 37 16 20 19 35 14 79 -5 49 -3 58 22 87 30 36 83 62 125 62 32
0 85 40 93 70 7 28 -2 26 -77 -20 -36 -22 -74 -40 -83 -40 -10 0 -38 -9 -62
-21 -25 -11 -63 -22 -85 -25 -23 -3 -56 -14 -75 -25 -21 -13 -43 -18 -58 -14
-27 6 -29 21 -6 47 15 17 15 18 -11 18 -18 0 -25 4 -20 12 4 7 3 8 -5 4 -6 -4
-17 -3 -24 2 -19 15 -65 23 -72 12 -3 -5 -15 -10 -26 -10 -10 0 -36 -16 -56
-35 -20 -19 -41 -35 -45 -35 -4 0 -11 -1 -15 -2 -39 -9 -82 -14 -78 -9 2 4 0
13 -5 21 -7 12 -10 12 -16 -3 -8 -21 -27 -22 -44 -2 -10 13 -17 11 -46 -11
-43 -33 -59 -28 -142 50 -37 34 -122 106 -189 159 -67 54 -128 103 -135 110
-39 35 -155 134 -165 141 -7 4 -13 3 -13 -2z"/>
<path d="M5255 939 c-11 -16 -27 -31 -35 -34 -30 -10 -90 -77 -110 -122 -32
-73 -95 -143 -223 -253 -36 -30 -68 -64 -71 -75 -6 -22 -65 -51 -131 -66 -33
-7 -28 -8 33 -5 56 3 78 8 95 23 27 25 75 39 56 17 -9 -11 -8 -14 4 -14 9 0
18 8 21 18 15 46 95 112 136 112 20 0 82 69 77 85 -2 5 6 14 17 20 12 6 22 21
24 33 2 12 10 22 19 22 8 0 13 6 10 13 -2 6 7 22 20 34 12 12 23 24 23 27 0 3
8 15 18 26 17 20 25 60 13 60 -4 0 -13 -6 -20 -12 -10 -11 -11 -10 -6 5 5 11
2 17 -6 17 -9 1 -7 7 7 18 24 20 59 71 53 77 -3 2 -13 -9 -24 -26z"/>
<path d="M6984 884 c-5 -18 1 -41 16 -72 14 -30 18 -48 11 -50 -6 -2 -11 -8
-11 -14 0 -14 48 -78 59 -78 4 0 20 27 36 60 16 33 37 69 47 80 18 19 17 19
-15 16 -49 -5 -77 -17 -77 -33 0 -32 -18 0 -25 43 -11 79 -28 99 -41 48z"/>
<path d="M9967 473 c-14 -32 -33 -84 -42 -115 -33 -123 -147 -301 -215 -336
l-44 -22 167 0 167 0 0 265 c0 146 -1 265 -3 265 -2 0 -15 -26 -30 -57z"/>
</g>
</svg>
