<?xml version="1.0" standalone="no"?>
<!DOCTYPE svg PUBLIC "-//W3C//DTD SVG 20010904//EN"
 "http://www.w3.org/TR/2001/REC-SVG-20010904/DTD/svg10.dtd">
<svg version="1.0" xmlns="http://www.w3.org/2000/svg"
 width="1187.000000pt" height="768.000000pt" viewBox="0 0 1187.000000 768.000000"
 preserveAspectRatio="xMidYMid meet">
<metadata>
Created by potrace 1.16, written by Peter Selinger 2001-2019
</metadata>
<g transform="translate(0.000000,768.000000) scale(0.100000,-0.100000)"
fill="#000000" stroke="none">
<path d="M6455 7130 c-221 -20 -471 -87 -646 -175 -164 -82 -368 -226 -501
-353 -346 -330 -489 -720 -423 -1157 21 -140 90 -355 114 -355 4 0 20 18 37
40 16 22 32 40 37 40 4 0 7 -19 7 -42 0 -24 7 -74 15 -113 8 -38 15 -73 15
-77 0 -5 -25 -8 -55 -8 -44 0 -56 -4 -65 -20 -12 -22 0 -82 26 -132 8 -15 30
-80 50 -145 48 -162 75 -214 139 -268 37 -32 55 -55 59 -79 9 -45 76 -183 125
-255 82 -120 273 -324 299 -319 13 3 -10 31 -90 111 -59 59 -132 146 -163 192
-52 78 -113 204 -128 265 l-6 25 70 -3 c79 -4 116 7 172 50 20 16 37 27 37 25
0 -2 -11 -37 -25 -77 -14 -40 -25 -82 -25 -93 0 -11 19 -37 42 -59 44 -41 75
-53 41 -15 -11 12 -28 34 -37 48 -15 24 -15 29 3 70 11 24 22 76 25 114 3 39
13 90 22 115 13 34 17 74 16 169 -2 132 4 151 44 151 32 0 48 -28 90 -154 42
-125 81 -188 153 -241 78 -57 135 -77 231 -82 149 -9 271 37 360 134 79 86
119 231 106 384 l-6 75 237 12 c131 7 268 15 305 19 l66 6 26 -82 c36 -114 43
-179 22 -219 -9 -18 -14 -32 -11 -32 2 0 21 33 41 73 78 155 160 252 247 293
121 56 188 14 217 -134 15 -76 2 -174 -33 -254 -27 -60 -109 -155 -174 -199
-47 -33 -166 -94 -223 -115 -44 -16 -18 -18 35 -2 22 6 42 12 45 13 13 3 116
58 120 65 3 4 19 14 36 23 44 23 150 139 180 199 37 74 57 178 49 264 -7 68
-5 80 40 211 61 177 113 286 165 346 54 61 57 89 35 272 -64 547 -247 938
-532 1141 -61 44 -219 124 -244 124 -8 0 -59 25 -114 56 -55 30 -133 66 -173
80 -150 49 -352 70 -527 54z m329 -1387 c46 -162 127 -315 287 -540 50 -70 95
-135 99 -143 7 -13 -35 -15 -351 -15 l-359 -1 -10 31 c-12 37 -71 95 -120 121
-46 23 -184 31 -248 14 -123 -34 -238 -111 -265 -179 l-16 -39 -98 -6 c-54 -4
-115 -9 -135 -12 -38 -6 -38 -5 -38 29 0 28 -8 42 -43 74 -91 84 -223 104
-327 50 -27 -14 -51 -23 -54 -19 -3 3 -6 28 -6 57 0 46 3 54 32 75 18 13 100
57 182 98 272 133 487 268 613 384 26 25 43 35 43 26 0 -8 -24 -62 -52 -119
-57 -112 -135 -227 -235 -344 -34 -40 -59 -75 -57 -78 8 -7 168 2 239 14 240
40 578 250 812 504 43 47 80 85 83 85 3 0 14 -30 24 -67z m-1350 -741 c53 -23
56 -27 35 -33 -38 -11 -320 -32 -327 -24 -10 10 67 74 102 85 45 14 123 2 190
-28z m972 -112 c36 -15 49 -28 66 -66 14 -32 19 -59 15 -85 -3 -22 -1 -37 4
-33 14 8 11 101 -5 138 -7 18 -26 42 -41 54 l-28 22 40 0 c39 0 41 -1 47 -37
9 -60 7 -177 -5 -235 -36 -169 -152 -257 -324 -246 -154 10 -259 112 -306 296
-11 46 -19 103 -17 134 l3 53 48 3 49 3 -16 -23 c-9 -13 -16 -41 -15 -68 l1
-45 14 47 c15 48 47 77 104 93 l25 7 -23 -17 c-33 -24 -62 -88 -62 -136 0 -97
73 -177 170 -187 61 -6 101 10 140 54 39 45 54 100 45 160 -5 39 -16 57 -51
93 -24 24 -44 46 -44 49 0 11 125 -9 166 -28z m-849 -67 c4 -21 8 -97 8 -168
0 -120 -2 -135 -25 -180 -41 -81 -129 -114 -220 -81 -34 12 -34 14 -51 108 -9
52 -24 120 -33 151 -23 78 -21 113 9 142 19 20 34 25 74 25 73 0 87 -8 57 -31
-70 -55 -45 -239 37 -274 39 -16 60 -7 87 38 24 39 27 141 6 191 -19 45 -75
89 -133 103 -46 11 -42 11 64 12 l112 1 8 -37z m-383 -75 c28 -92 59 -260 54
-286 -3 -13 -10 -8 -26 18 -12 19 -26 49 -31 65 -5 17 -21 70 -35 119 -32 110
-35 166 -6 166 16 0 24 -16 44 -82z"/>
<path d="M1743 4912 c-143 -24 -152 -27 -148 -46 6 -28 115 -745 275 -1814 72
-476 134 -870 139 -875 5 -5 72 -41 148 -81 l138 -71 -3 -200 c-3 -176 -6
-204 -23 -231 -43 -71 -23 -102 102 -163 l100 -49 33 67 c36 70 93 151 169
240 27 32 47 65 47 79 0 18 5 23 23 20 17 -2 26 5 40 35 11 20 34 49 54 64
l34 26 21 -20 c27 -28 14 -50 -54 -96 -103 -69 -274 -279 -326 -399 -11 -28
-11 -28 59 -64 l71 -35 451 46 c537 54 537 54 537 69 0 6 -16 22 -35 34 -30
21 -43 23 -119 20 -46 -2 -83 -1 -81 2 2 3 50 35 105 70 56 35 104 68 106 75
4 10 -33 305 -95 760 -10 77 -17 141 -16 143 2 2 12 -30 24 -70 49 -170 197
-600 206 -599 5 0 10 15 11 32 3 52 34 84 87 87 l45 3 8 -58 c4 -32 8 -73 8
-91 1 -22 5 -31 14 -27 8 3 22 5 33 5 17 0 19 5 14 34 -6 28 -3 36 20 54 15
12 31 20 34 17 4 -2 20 -6 36 -9 16 -3 31 -9 34 -13 3 -4 25 -8 49 -9 23 0 44
-3 47 -6 3 -3 12 -40 19 -82 l13 -77 -26 -11 c-41 -17 -92 -14 -106 5 -9 13
-20 16 -38 12 -33 -9 -39 -27 -24 -72 11 -34 18 -38 112 -74 118 -44 109 -14
75 -274 -17 -123 -23 -224 -24 -365 -1 -175 1 -202 21 -265 12 -39 33 -81 45
-92 13 -12 61 -38 108 -58 82 -35 434 -165 447 -165 3 0 -12 13 -33 29 -109
78 -156 187 -170 386 -4 66 1 152 20 320 50 434 121 932 136 948 4 5 12 -4 18
-20 7 -21 6 -50 -5 -104 -8 -41 -29 -174 -47 -296 l-33 -221 25 -12 c24 -11
458 -142 996 -301 148 -44 271 -78 273 -75 2 2 -10 71 -27 152 -87 418 -309
1663 -379 2124 -17 113 -35 223 -39 245 l-7 40 -175 32 c-96 18 -245 44 -330
58 -311 52 -1859 341 -1866 348 -3 3 27 17 66 33 39 15 73 30 75 33 4 8 -70
579 -76 586 -3 2 -68 18 -145 34 -76 16 -233 50 -349 75 -665 144 -815 176
-817 174 -2 0 -71 -12 -155 -26z m1370 -3319 c100 -53 196 -105 212 -115 l30
-18 -30 0 c-16 0 -147 -7 -290 -15 -354 -20 -315 -24 -315 33 l1 47 101 83
c56 45 104 82 106 82 2 0 85 -44 185 -97z"/>
<path d="M8755 4343 c-85 -5 -206 -23 -297 -44 -65 -15 -93 -27 -106 -44 -10
-13 -29 -71 -43 -129 -13 -58 -27 -106 -30 -106 -3 0 -32 21 -65 46 -140 109
-285 172 -416 181 -95 7 -108 -11 -14 -20 160 -15 319 -100 526 -282 201 -176
338 -351 449 -573 56 -111 81 -177 131 -342 49 -161 146 -422 189 -513 22 -45
63 -118 90 -162 56 -88 61 -112 30 -161 -11 -19 -17 -39 -13 -45 4 -8 3 -9 -4
-5 -7 4 -22 -3 -34 -17 -34 -35 -154 -127 -167 -127 -6 0 -11 -3 -11 -7 0 -5
-20 -16 -45 -26 -26 -11 -42 -23 -38 -30 3 -6 1 -7 -6 -3 -7 4 -33 -2 -58 -14
-104 -49 -192 -48 -508 5 -44 7 -107 16 -140 19 -33 3 -61 5 -63 6 -2 0 10 12
27 26 17 14 28 31 24 36 -3 6 -1 8 5 4 16 -10 82 27 77 43 -4 10 -2 11 7 3 10
-8 28 -6 66 7 28 10 50 20 48 22 -2 2 8 5 22 6 15 1 88 24 162 51 l135 49 -1
86 c0 47 3 84 8 81 4 -3 8 1 8 8 0 10 2 10 8 1 6 -10 28 -8 95 8 48 12 85 25
81 30 -3 5 -10 6 -16 3 -7 -4 -8 -2 -4 4 9 15 -31 55 -47 46 -7 -4 -9 -4 -5 1
12 13 -82 104 -103 100 -11 -2 -17 0 -14 6 4 5 11 7 16 4 16 -10 10 9 -14 45
-13 19 -22 41 -19 49 2 8 1 11 -4 8 -5 -3 -8 24 -7 60 l2 65 -25 -27 c-28 -30
-30 -40 -8 -31 8 3 12 2 9 -4 -3 -6 -16 -8 -28 -5 -27 6 -42 -3 -52 -34 -5
-18 -4 -22 5 -16 10 6 12 0 7 -26 -4 -20 -3 -29 2 -21 6 10 10 8 14 -10 10
-36 8 -46 -10 -52 -11 -3 -8 -4 7 -3 24 2 26 -2 42 -93 9 -52 20 -134 24 -181
l7 -86 -114 -31 c-63 -18 -168 -43 -234 -58 -108 -23 -439 -84 -457 -84 -5 0
-8 -11 -8 -25 0 -14 -7 -41 -15 -61 -8 -19 -12 -40 -9 -48 3 -7 -3 -19 -13
-27 -16 -13 -17 -12 -4 4 7 9 11 17 9 17 -3 0 -22 -21 -42 -47 l-36 -46 7 106
c4 74 3 107 -5 107 -6 0 -86 -11 -179 -25 -92 -13 -211 -29 -264 -35 -83 -8
-111 -17 -190 -55 -69 -33 -116 -48 -175 -57 -75 -11 -86 -10 -146 10 -35 12
-78 22 -94 22 -38 0 -121 -40 -161 -78 -17 -16 -34 -27 -37 -24 -3 3 -6 -1 -6
-9 0 -16 -59 -49 -85 -49 -8 0 -15 6 -15 13 0 14 28 58 44 69 6 4 7 8 1 8 -13
0 71 77 119 109 l40 26 -44 3 c-47 4 -128 -21 -146 -45 -7 -7 -18 -12 -25 -11
-9 2 -13 -4 -11 -14 2 -12 -2 -16 -12 -12 -8 3 -17 0 -22 -7 -5 -8 -3 -10 7
-5 8 4 3 -2 -11 -14 -14 -12 -23 -24 -22 -27 2 -3 1 -7 -1 -10 -13 -12 -26 40
-22 82 8 92 89 162 228 198 67 18 81 26 46 28 -90 5 -199 -13 -199 -32 0 -6
-6 -9 -14 -6 -8 3 -24 -6 -37 -20 -13 -15 -18 -23 -10 -18 11 6 13 4 8 -9 -4
-10 -7 -22 -7 -27 0 -6 -5 -7 -10 -4 -6 4 -10 3 -9 -2 5 -27 -2 -45 -15 -40
-9 4 -13 1 -10 -7 3 -7 -4 -21 -16 -31 -19 -17 -21 -17 -40 0 -29 26 -25 35
12 24 18 -5 28 -5 22 0 -5 5 -18 11 -29 13 -23 4 -30 33 -21 84 10 50 88 149
152 191 53 35 63 38 128 38 62 0 79 -4 131 -34 41 -22 54 -27 40 -13 -11 11
-42 32 -68 46 -27 14 -58 38 -70 53 l-21 28 25 -19 c13 -11 2 2 -24 27 -27 25
-46 51 -42 56 4 7 0 8 -11 4 -11 -4 -15 -3 -10 5 3 6 1 14 -5 18 -8 4 -9 3 -5
-4 9 -15 4 -15 -53 3 -38 13 -56 14 -92 5 -24 -6 -50 -12 -56 -12 -7 -1 -21
-11 -30 -22 -18 -21 -18 -21 5 -2 12 11 22 16 22 13 0 -13 -94 -77 -112 -77
-12 0 -17 4 -12 12 5 7 2 9 -8 5 -10 -3 -20 3 -27 17 -10 18 -9 30 4 63 32 79
174 149 290 141 83 -5 139 -36 246 -136 103 -95 206 -164 358 -242 l105 -53
90 6 c88 6 302 60 399 102 36 15 38 18 32 47 -4 17 -16 46 -27 64 -11 19 -17
34 -14 34 3 0 12 -12 20 -27 l15 -28 15 35 c8 19 24 41 35 48 26 15 27 29 4
35 -16 4 -16 5 -1 6 9 0 20 -3 23 -9 4 -6 15 -4 30 6 32 21 124 29 168 15 20
-7 47 -25 60 -41 l24 -28 98 29 c54 16 105 29 114 29 20 0 39 45 37 86 l-2 29
-84 2 c-56 1 -76 -1 -60 -7 23 -7 23 -8 3 -9 -12 -1 -28 5 -35 12 -7 8 -18 12
-24 10 -12 -4 -24 32 -51 147 -11 46 -23 74 -30 73 -7 -2 -10 4 -7 12 9 23 -5
67 -18 59 -7 -5 -8 -3 -3 5 4 7 2 33 -5 57 -12 40 -14 43 -26 27 -12 -16 -13
-14 -4 11 21 57 1 75 -91 79 -26 1 -45 5 -43 8 5 9 -65 31 -77 23 -8 -4 -9 -3
-5 4 4 7 2 12 -4 12 -17 0 -155 70 -253 128 -68 41 -92 50 -102 42 -8 -6 -11
-19 -8 -28 5 -13 1 -12 -13 4 -27 29 -140 124 -148 124 -4 0 -5 -4 -1 -9 3 -5
1 -12 -4 -15 -5 -3 -11 3 -14 14 -3 11 -1 18 4 14 16 -10 9 6 -25 57 -32 48
-35 50 -45 30 -10 -17 -2 -48 47 -183 84 -230 88 -245 117 -421 14 -87 27
-164 29 -170 1 -7 1 -9 -1 -4 -3 4 -9 7 -14 7 -6 0 -8 -4 -4 -9 3 -5 -3 -12
-12 -15 -47 -14 -217 -45 -224 -40 -5 2 -16 1 -26 -4 -52 -27 -81 -36 -223
-67 -154 -33 -154 -33 -181 -14 -133 95 -395 43 -471 -93 -14 -24 -29 -42 -34
-41 -5 1 -7 -22 -5 -50 4 -43 6 -47 10 -22 l6 29 17 -26 c34 -51 101 -44 158
17 60 65 132 73 206 23 26 -18 58 -47 71 -65 l25 -32 -39 -6 c-83 -14 -126
-37 -194 -107 l-67 -68 -70 0 c-64 0 -70 -2 -76 -22 -9 -36 -7 -41 11 -23 11
11 28 15 50 13 18 -2 33 0 33 4 0 4 9 8 21 8 13 0 19 -5 15 -12 -2 -7 -10 -29
-16 -49 -10 -31 -16 -35 -37 -31 -13 2 -30 13 -36 23 -16 25 -22 24 -22 -5 0
-13 2 -23 4 -21 2 3 13 -2 25 -10 11 -8 28 -15 36 -15 9 0 21 -15 29 -35 15
-42 52 -69 81 -60 17 6 20 2 20 -27 0 -19 6 -42 13 -52 17 -24 67 -24 80 -1
17 32 80 96 106 109 72 37 74 28 10 -36 -80 -80 -88 -91 -95 -127 -5 -22 -2
-32 14 -40 39 -21 87 -1 173 70 100 84 141 99 190 73 79 -42 271 -15 410 57
44 23 80 32 154 41 106 11 115 8 115 -40 0 -14 15 -39 33 -57 l33 -33 -22 -25
c-12 -14 -24 -31 -26 -37 -2 -6 -54 -24 -116 -42 -61 -17 -112 -33 -112 -37 0
-3 55 -29 122 -56 67 -28 123 -56 125 -62 3 -7 -14 -10 -49 -9 l-52 1 -34
-110 c-23 -74 -34 -133 -35 -180 l-2 -70 39 -19 c21 -10 58 -21 83 -24 35 -4
47 -10 58 -32 42 -82 311 -115 489 -60 89 28 97 40 103 157 3 54 6 99 7 100 1
2 82 -31 180 -72 98 -41 211 -89 252 -106 l75 -31 -7 -142 c-3 -77 -9 -144
-13 -148 -3 -3 -67 -25 -141 -49 -74 -23 -140 -46 -146 -51 -7 -5 -10 -18 -7
-28 5 -17 14 -20 68 -20 62 0 63 0 69 -31 8 -43 8 -119 -1 -119 -5 0 -17 -7
-27 -15 -19 -14 -20 -27 -17 -228 l2 -212 -42 -16 c-93 -34 -63 -39 212 -39
144 0 260 2 258 4 -2 2 -48 16 -103 32 l-98 27 6 111 c3 61 9 152 12 203 6 92
6 92 -20 104 -25 12 -26 15 -26 100 0 84 1 89 23 93 12 2 74 14 137 26 205 39
431 115 533 179 71 44 112 116 122 215 8 71 1 91 -60 171 -36 47 -37 48 -24
94 6 25 13 109 15 186 2 104 8 159 23 215 34 122 52 272 58 485 l6 200 33 28
c24 20 34 37 34 58 0 34 5 35 140 19 162 -18 231 -16 285 10 98 47 166 132
209 257 42 123 51 203 50 438 -1 281 -27 502 -100 835 -36 166 -27 151 -80
135 -25 -7 -65 -26 -87 -42 -23 -15 -44 -27 -47 -25 -3 1 -48 19 -100 40 -282
116 -623 167 -965 145z m-1533 -1783 c30 -135 58 -222 85 -262 40 -58 30 -79
-47 -101 -36 -10 -96 -19 -135 -20 -68 -1 -73 0 -190 62 -66 35 -156 88 -200
117 -85 56 -190 153 -178 164 5 4 67 17 138 29 72 12 207 39 300 61 94 21 179
38 189 37 16 -2 23 -17 38 -87z m1995 -583 c5 -32 1 -40 -41 -84 -38 -40 -48
-45 -56 -33 -9 12 -10 12 -8 -5 4 -27 -125 -92 -292 -146 -146 -48 -194 -48
-320 -4 -118 42 -118 50 2 65 253 31 508 120 653 228 22 16 44 26 48 22 4 -4
10 -23 14 -43z m-1261 -271 c106 -33 133 -87 66 -133 -49 -33 -133 -48 -267
-47 -201 0 -323 52 -286 122 12 23 97 61 160 73 69 12 268 3 327 -15z m-496
-366 l0 -140 -30 0 c-40 0 -100 25 -100 42 1 21 37 181 49 211 9 22 17 27 46
27 l35 0 0 -140z"/>
<path d="M7620 1649 c-69 -11 -112 -28 -107 -43 7 -22 103 -48 197 -53 109 -6
225 9 278 36 l36 18 -30 15 c-66 34 -248 47 -374 27z"/>
<path d="M7134 4203 c-56 -172 -192 -300 -544 -512 -171 -103 -340 -186 -408
-200 -121 -25 -256 -6 -345 49 -26 17 -45 25 -42 19 4 -5 1 -17 -6 -25 -6 -8
-9 -17 -5 -21 3 -3 6 -1 6 5 0 7 19 -2 42 -18 135 -98 338 -91 559 20 69 35
122 69 333 214 38 25 71 45 73 42 3 -3 -2 -26 -11 -52 -17 -50 -12 -129 7
-117 6 3 7 1 3 -6 -9 -15 3 -53 15 -46 5 3 6 0 4 -8 -7 -18 42 -70 57 -61 7 4
8 3 4 -5 -4 -6 -11 -9 -16 -6 -6 3 5 -19 23 -49 17 -30 35 -52 38 -50 4 2 6
-2 6 -9 -1 -6 14 -43 32 -82 109 -229 125 -259 129 -240 2 10 0 21 -6 23 -5 1
-8 12 -5 22 3 11 -4 37 -15 57 -42 79 -62 120 -96 196 -25 54 -40 77 -53 77
-12 0 -14 3 -6 8 9 5 7 16 -9 40 -11 17 -24 32 -30 32 -5 0 -6 5 -2 12 5 8 2
9 -10 5 -9 -4 -15 -3 -12 2 3 4 -4 31 -14 60 -11 28 -20 65 -20 81 0 17 -5 30
-10 30 -7 0 -7 6 -1 18 6 9 12 29 15 44 4 16 15 30 29 34 41 13 220 -1 272
-21 18 -7 18 -6 5 8 -19 19 -146 57 -194 57 -24 0 -36 5 -36 14 0 19 27 39 41
30 8 -4 9 -3 5 4 -4 7 -3 12 3 12 5 0 13 9 16 21 4 12 13 18 20 15 7 -2 21 6
29 19 11 16 22 22 34 19 14 -5 14 -4 2 4 -8 6 -19 8 -25 4 -5 -3 11 14 36 38
43 42 77 108 95 183 7 30 -3 38 -12 10z"/>
<path d="M7030 2984 c-338 -181 -759 -299 -925 -258 -47 11 -103 42 -146 81
-42 38 -51 40 -43 7 6 -22 94 -82 168 -115 43 -19 61 -21 130 -16 45 4 128 18
186 32 58 15 126 27 152 28 25 1 42 5 36 8 -6 4 -1 10 11 14 13 4 29 1 39 -6
14 -11 15 -11 5 1 -11 11 -4 17 40 31 28 9 59 18 67 20 8 2 17 7 20 10 12 13
92 39 103 33 7 -4 9 -3 4 1 -6 7 32 30 63 40 27 8 160 82 164 90 12 32 -13 32
-74 -1z"/>
<path d="M1560 1660 l0 -158 69 -36 68 -36 7 -77 c3 -43 19 -346 36 -673 17
-327 33 -614 36 -637 l5 -43 150 0 149 0 0 144 0 145 251 -145 251 -144 1152
0 1151 0 -70 39 c-38 21 -365 199 -725 396 -360 197 -794 434 -965 528 l-310
169 -95 3 c-125 3 -175 18 -222 65 -33 32 -38 44 -38 82 l0 45 -450 245 -450
246 0 -158z"/>
<path d="M3897 1780 c-61 -19 -70 -43 -35 -91 18 -24 93 -69 114 -69 7 0 -4
103 -14 135 -9 33 -23 38 -65 25z"/>
<path d="M6795 1438 c-99 -33 -187 -62 -195 -65 -10 -3 5 -14 39 -30 l54 -24
121 45 c163 60 173 65 178 90 5 24 0 47 -10 45 -4 -1 -88 -28 -187 -61z"/>
<path d="M5483 892 c-7 -5 140 -83 374 -200 l385 -193 -4 -55 c-3 -35 -1 -54
6 -53 6 0 247 87 536 192 l525 192 3 46 c3 41 0 47 -23 57 -14 7 -32 12 -40
12 -7 0 -235 -81 -505 -179 l-492 -179 -375 184 c-205 101 -375 184 -376 184
-1 0 -7 -4 -14 -8z"/>
</g>
</svg>
